<?xml version="1.0" standalone="no"?>
<!DOCTYPE svg PUBLIC "-//W3C//DTD SVG 1.1//EN" "http://www.w3.org/Graphics/SVG/1.1/DTD/svg11.dtd" >
<svg xmlns="http://www.w3.org/2000/svg">
<metadata></metadata>
<defs>
<font id="hoefler_textregular" horiz-adv-x="1503" >
<font-face units-per-em="2048" ascent="1638" descent="-410" />
<missing-glyph horiz-adv-x="512" />
<glyph horiz-adv-x="0" />
<glyph unicode="&#xd;" horiz-adv-x="440" />
<glyph unicode=" "  horiz-adv-x="512" />
<glyph unicode="&#x09;" horiz-adv-x="512" />
<glyph unicode="&#xa0;" horiz-adv-x="512" />
<glyph unicode="!" horiz-adv-x="483" d="M133 74q0 46 32 78t77 32q46 0 77 -32t31 -78q0 -45 -31.5 -77t-76.5 -32t-77 32t-32 77zM133 1333q0 33 31 55t78 22q48 0 79 -22t31 -58l-76 -894q-3 -27 -34 -26q-33 0 -33 26z" />
<glyph unicode="&#x22;" horiz-adv-x="829" d="M133 1368q0 26 28 46.5t68 20.5q41 0 70 -20.5t29 -49.5l-68 -497q-3 -14 -31 -14q-29 0 -28 14zM502 1368q0 26 28 46.5t68 20.5t69 -20.5t29 -49.5l-67 -497q-3 -14 -31 -14q-29 0 -29 14z" />
<glyph unicode="#" horiz-adv-x="1484" d="M49 440q0 57 25 58h329l123 411h-297q-27 0 -26 55q0 55 26 55h330l129 432q5 20 64 20q51 0 51 -20l-129 -432h302l129 432q5 20 63 20q52 0 52 -20l-129 -432h317q25 0 25 -55q0 -54 -25 -55h-350l-121 -411h315q27 0 27 -58q0 -55 -27 -55h-349l-125 -416 q-6 -20 -63 -20q-52 0 -51 20l124 416h-303l-125 -416q-6 -20 -63 -20q-52 0 -51 20l125 416h-295q-27 0 -27 55zM518 498h305l120 411h-302z" />
<glyph unicode="$" horiz-adv-x="1138" d="M182 330q0 14 29 14q22 0 26 -14q45 -154 110 -224t175 -83l35 520q-198 110 -273 193t-75 194q0 147 113.5 252t285.5 105l6 92q0 20 33 21q33 0 33 -21l-6 -94q31 -3 81 -13q79 -15 140 -16q11 -162 33 -297q0 -14 -27 -14t-30 14q-29 122 -76 183.5t-125 75.5 l-33 -475q9 -6 28 -17q199 -115 261 -194.5t62 -173.5q0 -183 -109.5 -292.5t-296.5 -114.5q0 -15 -4 -72q0 -20 -33 -20t-33 20l6 78q-51 5 -134 26q-108 28 -177 27q-13 218 -25 320zM387 1007q0 -57 40.5 -109t145.5 -120l31 446q-101 0 -159 -58t-58 -159zM588 20 q110 0 168.5 61.5t58.5 176.5q0 69 -45 127.5t-149 122.5z" />
<glyph unicode="%" horiz-adv-x="1757" d="M113 721q0 132 68.5 265t178 217t218.5 84q58 0 108.5 -33t79.5 -92q77 -31 154 -30q98 0 196.5 46.5t174.5 128.5q6 7 16 7q12 0 31.5 -14t19.5 -27l-3 -8l-872 -1335q-6 -8 -15 -8q-12 0 -32.5 14t-20.5 27l3 8l765 1171q-130 -74 -268 -74q-57 0 -122 16q8 -45 8 -75 q0 -131 -69 -265t-179 -218t-217 -84q-95 0 -159 78t-64 201zM268 606q0 -56 16.5 -78t55.5 -22q60 0 135 98.5t122.5 241.5t47.5 277q0 20 -2 31q-46 32 -78 70q-61 -7 -134 -107t-118 -240.5t-45 -270.5zM955 233q0 132 69.5 266.5t179 219t216.5 84.5q95 0 159.5 -78.5 t64.5 -200.5q0 -132 -69 -266t-178.5 -218.5t-217.5 -84.5q-94 0 -159 78.5t-65 199.5zM1111 119q0 -55 16.5 -78t55.5 -23q61 0 135.5 99.5t122 243t47.5 278.5q0 55 -16.5 77.5t-55.5 22.5q-60 0 -135 -99t-122.5 -243t-47.5 -278z" />
<glyph unicode="&#x26;" horiz-adv-x="1607" d="M66 322q0 231 376 405q-61 71 -83.5 124.5t-22.5 116.5q0 130 87.5 224.5t219.5 94.5q112 0 189 -66.5t77 -156.5q0 -72 -59 -139.5t-195 -144.5l323 -366q123 152 153.5 207t30.5 100q0 43 -43.5 64t-141.5 29q-17 1 -18 28q0 29 17 28q44 0 129 -5q106 -7 174 -7 q69 0 161 7q75 5 120 5q16 1 16 -28q0 -26 -16 -28q-110 -17 -174.5 -49.5t-118.5 -98.5l-244 -304q155 -176 222 -228t128 -52q86 0 155 73l5 2q10 0 20 -12t10 -26q0 -15 -52.5 -67.5t-110 -76.5t-127.5 -24q-89 0 -168.5 49t-209.5 209q-106 -139 -215 -196.5t-250 -57.5 q-147 0 -255.5 109.5t-108.5 257.5zM276 356q0 -121 71 -193.5t194 -72.5q167 0 311 168l-369 418q-207 -151 -207 -320zM508 1048q0 -96 106 -219q77 49 121.5 113.5t44.5 119.5q0 74 -36 117t-101 43q-52 0 -93.5 -49t-41.5 -125z" />
<glyph unicode="'" horiz-adv-x="460" d="M133 1368q0 26 28 46.5t68 20.5q41 0 70 -20.5t29 -49.5l-68 -497q-3 -14 -31 -14q-29 0 -28 14z" />
<glyph unicode="(" horiz-adv-x="604" d="M92 592q0 335 213 609q80 103 185 188.5t123 85.5q9 0 19.5 -13t10.5 -25q0 -9 -6 -15q-188 -172 -273 -370.5t-85 -459.5q0 -262 85 -461.5t272 -370.5q7 -6 7 -16q0 -11 -10.5 -23.5t-19.5 -12.5q-17 0 -122.5 85t-186.5 190q-212 274 -212 609z" />
<glyph unicode=")" horiz-adv-x="604" d="M-38 -256q0 10 6 16q188 171 273.5 370.5t85.5 461.5q0 261 -85 459.5t-275 370.5q-5 5 -5 15q0 12 10 25t20 13q17 0 122.5 -85t186.5 -190q212 -273 212 -608t-213 -609q-81 -104 -186 -189.5t-122 -85.5q-9 0 -19.5 12.5t-10.5 23.5z" />
<glyph unicode="*" horiz-adv-x="794" d="M72 933q0 32 27 57.5t130 50.5q82 20 111 37q-29 16 -108 36q-102 25 -131 51t-29 59q0 31 21 52t50 21q26 0 53.5 -16.5t84.5 -75.5q59 -61 88 -78q0 33 -24 114q-24 82 -23 116q0 38 21 62t54 24q34 0 55 -23.5t21 -62.5q0 -34 -23 -116q-24 -81 -24 -114q29 16 87 78 q56 58 84.5 75t53.5 17q30 0 51 -20.5t21 -52.5q0 -35 -28.5 -60t-130.5 -50q-82 -19 -109 -36q29 -16 111 -37q103 -26 130 -50.5t27 -57.5q0 -32 -21 -52.5t-51 -20.5q-31 0 -57 17.5t-79 72.5q-60 62 -89 79q0 -34 24 -114q24 -81 23 -114q0 -39 -21 -62.5t-55 -23.5 t-54.5 24t-20.5 62q0 34 23 114q24 80 24 114q-30 -16 -89 -79q-53 -55 -80 -72.5t-57 -17.5t-50.5 21.5t-20.5 51.5z" />
<glyph unicode="+" horiz-adv-x="892" d="M72 453q0 57 26 57h291v291q0 27 57 26q55 0 56 -26v-291h293q26 0 26 -57q0 -55 -26 -56h-293v-293q0 -27 -56 -26q-57 0 -57 26v293h-291q-27 0 -26 56z" />
<glyph unicode="," horiz-adv-x="505" d="M124 -340l3 8q168 106 168 258q0 47 -16 47l-13 -3q-12 -5 -20 -5q-48 0 -80.5 35.5t-32.5 85.5q0 49 35 84t84 35q69 0 113.5 -57t44.5 -142q0 -97 -38.5 -176.5t-116.5 -143.5t-99 -64q-13 0 -22.5 13.5t-9.5 24.5z" />
<glyph unicode="-" horiz-adv-x="667" d="M41 453q0 57 27 57h532q27 0 27 -57q0 -55 -27 -56h-532q-27 0 -27 56z" />
<glyph unicode="." horiz-adv-x="505" d="M133 86q0 49 36 84t85 35t84 -35t35 -84t-35 -85t-84 -36t-85 36t-36 85z" />
<glyph unicode="/" horiz-adv-x="579" d="M69 -31l442 1482q5 20 63 20q52 0 52 -20l-443 -1482q-5 -20 -63 -20q-51 0 -51 20z" />
<glyph unicode="0" horiz-adv-x="1220" d="M123 444q0 210 142 349.5t345 139.5t345 -139.5t142 -349.5q0 -209 -142 -348t-345 -139q-204 0 -345.5 139.5t-141.5 347.5zM266 444q0 -177 97.5 -287t246.5 -110q150 0 246.5 110t96.5 287t-97 288.5t-246 111.5q-150 0 -247 -111t-97 -289z" />
<glyph unicode="1" horiz-adv-x="776" d="M109 16q0 17 7.5 22.5t29.5 7.5q80 10 104 25.5t34.5 47.5t10.5 90v473q0 65 -13.5 97.5t-42 45t-98.5 20.5q-20 2 -26 7.5t-6 21.5q0 29 16 29q42 0 122 -6q89 -6 140 -6q50 0 139 6q82 6 125 6q14 0 15 -29q0 -27 -32 -29q-83 -9 -108 -24t-36 -48t-11 -91v-473 q0 -66 13 -98t41 -44.5t96 -20.5q22 -2 29.5 -7t7.5 -23q0 -29 -15 -28q-43 0 -125 6q-89 6 -139 6q-51 0 -140 -6q-80 -6 -122 -6q-16 0 -16 28z" />
<glyph unicode="2" horiz-adv-x="915" d="M68 10q0 5 90 90q234 221 315.5 333.5t81.5 189.5q0 156 -172 155q-123 0 -230 -115q-5 -5 -16 -6q-14 0 -25 10t-11 20q0 12 69 92t137.5 118t143.5 38q127 0 207.5 -74t80.5 -189q0 -75 -69 -168t-303 -299q-40 -36 -60 -53h326q58 0 88.5 16.5t81.5 81.5q8 10 21 10 q12 0 23.5 -9t10.5 -22q-56 -110 -100 -241q-71 12 -316 12q-295 0 -355 -12q-19 0 -19 22z" />
<glyph unicode="3" horiz-adv-x="829" d="M39 -379q0 68 72 68q35 0 85 -25q40 -20 62 -20q115 0 201 119t86 272q0 99 -60.5 168t-150.5 69q-72 0 -119 -28l-5 -1q-10 0 -20 11.5t-10 24.5q0 12 8 16q324 157 324 346q0 67 -45.5 108.5t-120.5 41.5q-135 0 -205 -99q-6 -8 -17 -8q-12 0 -23.5 8.5t-11.5 18.5 q0 20 59.5 85t133 102t146.5 37q110 0 189 -71.5t79 -165.5q0 -80 -53 -151t-174 -152q124 -16 192 -101t68 -222q0 -124 -84 -242t-228.5 -204.5t-240.5 -86.5q-137 0 -137 82z" />
<glyph unicode="4" horiz-adv-x="1097" d="M49 25q0 10 19 32l657 838q29 33 61 33q29 0 29 -17q-16 -172 -16 -356v-444h224q25 -1 25 -56t-27 -55h-222v-418q0 -43 -92 -43t-93 43v418h-544q-20 0 -21 25zM203 111h411v538z" />
<glyph unicode="5" horiz-adv-x="841" d="M35 -432q0 29 16 29q185 0 301.5 113.5t116.5 291.5q0 141 -70.5 221.5t-246.5 132.5q-49 14 -50 54q0 15 9 34l178 439q9 25 35 24h313q38 0 57.5 11.5t40.5 45.5q8 14 25 14q12 0 22.5 -8.5t10.5 -20.5l-50 -115q-25 -59 -54.5 -83t-80.5 -24h-315l-55 -143 q-8 -19 -9 -32q0 -25 37 -36q385 -116 385 -448q0 -212 -179.5 -370.5t-420.5 -158.5q-16 0 -16 29z" />
<glyph unicode="6" horiz-adv-x="1077" d="M102 416q0 355 333 667q88 83 191 152.5t206 115t127 45.5q23 0 23 -37q0 -16 -7 -19q-283 -94 -474.5 -349t-191.5 -557q0 -195 62 -303t176 -108q110 0 168.5 93t58.5 267q0 144 -58 225.5t-159 81.5q-41 0 -78 -18l-8 -2q-12 0 -22.5 12.5t-10.5 23.5q0 19 71.5 63 t133.5 44q148 0 238.5 -112t90.5 -293t-129 -316t-313 -135q-186 0 -307 134t-121 325z" />
<glyph unicode="7" horiz-adv-x="911" d="M68 598q49 156 71 305q51 -12 340 -12q304 0 359 12q16 1 16 -22l-3 -11l-529 -1321q-10 -27 -60 -26q-45 0 -45 25l1 8l497 1155h-428q-54 0 -98.5 -31.5t-63.5 -83.5q-6 -16 -29 -16q-25 0 -28 18z" />
<glyph unicode="8" horiz-adv-x="985" d="M102 287q0 103 79.5 208.5t211.5 182.5q-231 186 -231 351q0 157 104.5 262t257.5 105q158 0 257.5 -88.5t99.5 -225.5q0 -99 -73.5 -200t-180.5 -161q144 -125 200 -218t56 -190q0 -151 -110.5 -253.5t-283.5 -102.5q-174 0 -280.5 94t-106.5 236zM256 299 q0 -125 61.5 -200.5t163.5 -75.5q100 0 155.5 61t55.5 176q0 91 -43 164.5t-207 210.5q-186 -119 -186 -336zM326 1103q0 -130 252 -341q63 47 110 137.5t47 172.5q0 122 -54 190t-149 68q-100 0 -153 -58.5t-53 -168.5z" />
<glyph unicode="9" horiz-adv-x="1077" d="M102 502q0 177 129 305t316 128q190 0 308.5 -137t118.5 -354q0 -158 -68 -318.5t-193 -298.5q-73 -80 -158 -143.5t-174.5 -104t-112.5 -40.5q-9 0 -16 12.5t-7 24.5q0 16 9 20q226 65 370 301.5t144 546.5q0 198 -63.5 312t-174.5 114t-170 -89.5t-59 -254.5 q0 -121 59 -197.5t160 -76.5q51 0 86 19l7 2q11 0 22 -12t11 -24q0 -20 -74.5 -64t-137.5 -44q-136 0 -234 109.5t-98 263.5z" />
<glyph unicode=":" horiz-adv-x="505" d="M133 86q0 49 36 84t85 35t84 -35t35 -84t-35 -85t-84 -36t-85 36t-36 85zM133 674q0 50 35.5 85.5t85.5 35.5q49 0 84 -35.5t35 -85.5q0 -49 -35 -84t-84 -35t-85 35t-36 84z" />
<glyph unicode=";" horiz-adv-x="505" d="M124 -340l3 8q168 106 168 258q0 47 -16 47l-13 -3q-12 -5 -20 -5q-48 0 -80.5 35.5t-32.5 85.5q0 49 35 84t84 35q69 0 113.5 -57t44.5 -142q0 -97 -38.5 -176.5t-116.5 -143.5t-99 -64q-13 0 -22.5 13.5t-9.5 24.5zM133 674q0 50 35.5 85.5t85.5 35.5q49 0 84 -35.5 t35 -85.5q0 -49 -35 -84t-84 -35t-85 35t-36 84z" />
<glyph unicode="&#x3c;" horiz-adv-x="1081" d="M72 430q0 46 27 60l796 405l5 1q17 0 36 -28.5t19 -51.5q0 -16 -12 -22l-718 -364l718 -364q12 -6 12 -22q0 -23 -18.5 -51.5t-36.5 -28.5l-5 1l-797 404q-27 14 -26 61z" />
<glyph unicode="=" horiz-adv-x="892" d="M72 299q0 57 26 57h697q26 0 26 -57q0 -55 -26 -55h-697q-27 0 -26 55zM72 606q0 57 26 58h697q26 -1 26 -58q0 -55 -26 -55h-697q-27 0 -26 55z" />
<glyph unicode="&#x3e;" horiz-adv-x="1081" d="M126 44q0 15 11 22l719 364l-719 365q-11 5 -11 21q0 23 18.5 51.5t35.5 28.5l6 -1l796 -403q27 -16 27 -62q0 -47 -27 -60l-796 -405l-6 -1q-17 0 -35.5 29t-18.5 51z" />
<glyph unicode="?" horiz-adv-x="722" d="M96 1306q0 48 31.5 76t83.5 28q90 0 198 -67t175 -166.5t67 -198.5q0 -126 -50.5 -212.5t-203.5 -171.5q-97 -54 -125 -91t-28 -85v-49q0 -20 -33 -21q-29 0 -33 21v196q0 62 35 111.5t148 117.5q114 68 150 117.5t36 113.5q0 113 -54.5 162t-175.5 49q-33 0 -76 -9 q-38 -7 -63 -7q-33 0 -57.5 26t-24.5 60zM102 74q0 46 32 78t77 32t76.5 -32t31.5 -78q0 -45 -32 -77t-76 -32q-45 0 -77 32t-32 77z" />
<glyph unicode="@" horiz-adv-x="1585" d="M92 700q0 200 99.5 372t271.5 271.5t373 99.5q305 0 490.5 -181t185.5 -476q0 -218 -125.5 -354.5t-304.5 -136.5q-101 0 -164.5 50t-63.5 134q0 32 10 68q-59 -101 -148.5 -160t-176.5 -59q-45 0 -74 33t-29 88q0 109 93.5 253.5t228.5 254t222 109.5q48 0 74 -18l10 28 q13 29 86 29q62 0 62 -24l-1 -5l-211 -480q-24 -55 -23 -101q0 -60 41 -95t109 -35q130 0 225 118.5t95 302.5q0 260 -163.5 409.5t-447.5 149.5q-254 0 -417 -184t-163 -461q0 -278 163 -461.5t417 -183.5q278 0 430 123l7 2q10 0 20.5 -12.5t10.5 -23.5q0 -17 -84.5 -74 t-182 -86t-201.5 -29q-201 0 -373 100t-271.5 272.5t-99.5 372.5zM610 535q0 -45 14 -63.5t48 -18.5q42 0 125.5 95.5t153.5 219.5t70 179q0 49 -37 49q-70 0 -157 -77t-152 -192.5t-65 -191.5z" />
<glyph unicode="A" d="M-3 13q0 29 23 31q85 8 135 47t103 159l479 1176q6 16 29 17q25 0 31 -16l423 -1177q36 -99 96.5 -146.5t163.5 -59.5q20 -2 20 -28q0 -28 -15 -28h-1q-71 0 -160 6q-77 6 -131 6q-62 0 -155 -6q-97 -6 -166 -6q-16 0 -16 28q0 29 12 29q91 4 131 24t40 62q0 27 -20 85 l-116 343h-422l-116 -317q-23 -63 -23 -99q0 -90 166 -98q12 0 12 -29q0 -28 -15 -28h-1q-61 0 -136 6q-71 6 -126 6q-44 0 -111 -6q-70 -6 -119 -6q-15 0 -15 25zM506 625h375l-181 523z" />
<glyph unicode="B" horiz-adv-x="1329" d="M57 16q0 26 17 28q124 14 168.5 46t44.5 127v964q0 72 -18 101t-63 46t-132 27q-16 0 -17 28q0 29 17 29q69 0 168 -6q95 -6 157 -6t164 6q108 6 176 6q191 0 309 -91t118 -241q0 -104 -87 -194.5t-215 -119.5q181 -36 289 -132t108 -228q0 -189 -127 -303.5t-337 -114.5 q-69 0 -195 6q-120 6 -182 6t-168 -6q-110 -6 -178 -6q-16 0 -17 28zM496 217q0 -93 53 -127.5t182 -34.5q134 0 219 97t85 254q0 147 -84 231t-232 84h-223v-504zM496 786h147q156 0 226 69t70 225q0 135 -66.5 198.5t-206.5 63.5h-41q-129 0 -129 -110v-446z" />
<glyph unicode="C" d="M92 692q0 207 104 381.5t286.5 272t410.5 97.5q96 0 258 -21q126 -16 183 -16q13 -143 47 -348q0 -16 -32 -17q-20 0 -25 17q-37 139 -159 229t-280 90q-241 0 -404.5 -198.5t-163.5 -486.5q0 -280 162 -476t395 -196q366 0 519 347q7 16 27 16q29 0 29 -16 q-37 -164 -72 -349q-58 0 -212 -27q-197 -36 -291 -36q-233 0 -409 92t-274.5 263.5t-98.5 381.5z" />
<glyph unicode="D" horiz-adv-x="1691" d="M59 16q0 26 17 28q85 10 130 27t63 45.5t18 100.5v960q0 71 -17 100t-62 46t-132 28q-16 0 -17 28q0 29 17 29q120 -8 370 -8q47 0 189 3q137 3 182 3q350 0 565.5 -200.5t215.5 -515.5t-210.5 -508.5t-570.5 -193.5q-45 0 -182 4q-141 4 -189 4q-190 0 -370 -8 q-16 0 -17 28zM496 178q0 -117 120 -117l193 -6q239 0 401.5 182t162.5 453q0 279 -159 463.5t-399 184.5h-6l-193 -4q-121 -4 -120 -119v-1037z" />
<glyph unicode="E" horiz-adv-x="1333" d="M59 16q0 26 17 28q85 10 130 27t63 45.5t18 100.5v964q0 71 -17 100t-62 46.5t-132 27.5q-16 0 -17 28q0 29 17 29q258 -12 528 -12q272 0 530 12q24 -159 68 -313q0 -20 -36 -21q-17 0 -21 15q-76 241 -322 241h-2h-207q-119 0 -118 -123v-455h258q102 0 138.5 47 t50.5 167q0 16 29 16t28 -16q0 -51 -6 -129q-6 -75 -6 -122q0 -48 6 -123q6 -80 6 -131q0 -16 -28 -16q-29 0 -29 16q-15 125 -53.5 175t-135.5 50h-258v-504q0 -120 116 -120h2h224q122 0 241.5 79t175.5 198q4 9 18 9t25.5 -7.5t11.5 -18.5q-83 -177 -135 -338 q-386 12 -550 12q-162 0 -549 -12q-16 0 -17 28z" />
<glyph unicode="F" horiz-adv-x="1228" d="M59 16q0 26 17 28q85 10 130 27t63 45.5t18 100.5v964q0 71 -17 100t-62 46.5t-132 27.5q-16 0 -17 28q0 29 17 29q258 -12 528 -12q256 0 513 12q34 -177 77 -313q0 -20 -36 -21q-17 0 -21 15q-36 119 -123 180t-213 61h-185q-121 0 -120 -123v-455h233q102 0 138.5 47 t52.5 167q0 16 27 16q29 0 29 -16q0 -51 -6 -129q-6 -75 -6 -122q0 -48 6 -123q6 -80 6 -131q0 -16 -29 -16q-28 0 -27 16q-16 125 -55 175t-136 50h-233v-473q0 -71 17.5 -100t63.5 -46t131 -27q17 -2 17 -28q0 -28 -15 -28h-1q-69 0 -164 6q-91 6 -154 6q-62 0 -152 -6 q-94 -6 -163 -6q-16 0 -17 28z" />
<glyph unicode="G" horiz-adv-x="1679" d="M92 692q0 209 106.5 383.5t294 271t425.5 96.5q92 0 247 -33q137 -29 210 -29q13 -143 47 -348q0 -16 -32 -16q-22 0 -26 16q-90 344 -479 344q-241 0 -404.5 -198.5t-163.5 -486.5q0 -280 162 -476t395 -196q343 0 344 170v271q0 56 -54.5 80t-260.5 45q-16 0 -16 30 q0 29 16 29q69 0 203 -5q129 -5 191 -5q61 0 163 5q109 5 177 5q17 0 17 -29q0 -26 -17 -27q-124 -14 -168.5 -46t-44.5 -127v-121q0 -158 23 -217q-136 -54 -294 -88.5t-279 -34.5q-233 0 -409 92t-274.5 263.5t-98.5 381.5z" />
<glyph unicode="H" horiz-adv-x="1773" d="M57 16q0 26 17 28q124 14 168.5 46t44.5 127v964q0 72 -18 101t-63 46t-132 27q-16 0 -17 28q0 29 17 29q69 0 164 -6q91 -6 153 -6t145 6q86 6 154 6q16 0 17 -29q0 -29 -17 -28q-80 -9 -121 -24.5t-57 -41.5t-16 -108v-442h781v442q0 69 -12 98.5t-53.5 47.5t-129.5 28 q-16 0 -16 28q0 29 16 29q69 0 155 -6q82 -6 144 -6t153 6q95 6 165 6q16 0 16 -29t-16 -28q-87 -10 -132 -27t-63 -46.5t-18 -100.5v-964q0 -95 44.5 -127t168.5 -46q16 -2 16 -28q0 -28 -15 -28h-1q-70 0 -165 6q-90 6 -153 6q-62 0 -144 -6q-86 -6 -155 -6q-16 0 -16 28 q0 26 17 28q86 10 128 28t54 47t12 98v457h-781v-457q0 -69 11.5 -98t53.5 -47t129 -28q16 -2 17 -28q0 -28 -16 -28h-1q-69 0 -154 6q-82 6 -145 6q-62 0 -153 -6q-95 -6 -164 -6q-16 0 -17 28z" />
<glyph unicode="I" horiz-adv-x="905" d="M119 16q0 26 16 28q124 14 168.5 46t44.5 127v964q0 72 -18 101t-63 46t-132 27q-16 0 -16 28q0 29 16 29q70 0 165 -6q90 -6 153 -6q62 0 152 6q94 6 163 6q16 0 16 -29t-16 -28q-86 -10 -131 -27t-62.5 -46t-17.5 -101v-964q0 -71 17.5 -100t62 -46t130.5 -27 q17 -2 17 -28q0 -28 -15 -28h-1q-69 0 -163 6q-90 6 -152 6t-153 -6q-95 -6 -165 -6q-16 0 -16 28z" />
<glyph unicode="J" horiz-adv-x="772" d="M-270 -356q0 57 42 95t107 38q33 0 58.5 -13.5t61.5 -55.5q48 -58 91 -58q94 0 150.5 148t56.5 419v964q0 71 -17 100t-62 46.5t-132 27.5q-16 0 -16 28q0 29 16 29q69 0 163 -6q90 -6 152 -6t154 6q95 6 164 6q16 0 16 -29t-16 -28q-87 -10 -132 -27t-63 -46.5 t-18 -100.5v-907q0 -190 -83.5 -368.5t-221.5 -286.5t-285 -108q-86 0 -136 36t-50 97z" />
<glyph unicode="K" horiz-adv-x="1615" d="M57 16q0 26 17 28q124 14 168.5 46t44.5 127v964q0 72 -18 101t-63 46t-132 27q-16 0 -17 28q0 29 17 29q69 0 164 -6q90 -6 151 -6q62 0 154 6q95 6 164 6q16 0 16 -29t-16 -28q-87 -10 -132.5 -27t-63 -46.5t-17.5 -100.5v-464q40 0 64.5 10t57.5 43l450 443 q55 52 55 76q0 28 -26 42t-105 24q-16 0 -16 28q0 29 18 29q48 0 127 -6q84 -6 139 -6t123 7q56 5 97 5q14 0 14 -29t-16 -28q-98 -12 -154.5 -40t-135.5 -103l-467 -444l580 -590q60 -63 119.5 -91.5t175.5 -42.5q19 -2 19 -28q0 -28 -16 -28h-1q-69 0 -163 6q-91 6 -154 6 q-60 0 -167 -6q-112 -6 -180 -6q-16 0 -17 28q0 26 15 28q138 16 138 67q0 29 -45 73l-407 414q-33 33 -56.5 43t-65.5 10v-434q0 -71 17.5 -100t63.5 -46t131 -27q17 -2 17 -28q0 -28 -15 -28h-1q-69 0 -164 6q-91 6 -154 6q-61 0 -151 -6q-95 -6 -164 -6q-16 0 -17 28z " />
<glyph unicode="L" horiz-adv-x="1265" d="M57 16q0 26 17 28q124 14 168.5 46t44.5 127v964q0 72 -18 101t-63 46t-132 27q-16 0 -17 28q0 29 17 29q69 0 164 -6q91 -6 153 -6t153 6q94 6 163 6q16 0 16 -29t-16 -28q-86 -10 -131.5 -27t-62.5 -46t-17 -101v-995q0 -120 116 -120h2h203q126 0 213 67t172 250 q4 8 20 8q13 0 24.5 -8t11.5 -18q-48 -180 -75 -377q-392 12 -558 12q-164 0 -551 -12q-16 0 -17 28z" />
<glyph unicode="M" horiz-adv-x="1990" d="M12 16q0 26 19 28q129 15 178.5 48t56.5 125l107 964q1 18 1 32q0 67 -47 96.5t-171 45.5q-14 0 -15 28q0 10 6.5 19.5t12.5 9.5q38 0 107 -6q59 -6 87 -6q36 0 103 6q69 6 106 6l439 -1140l455 1140q41 0 108 -6q60 -6 95 -6q43 0 103 6q62 6 108 6q18 0 18 -29t-16 -28 q-120 -14 -163.5 -44t-43.5 -113v-17l47 -964q3 -72 22 -100.5t65 -45.5t132 -27q17 -2 17 -28q0 -29 -17 -28q-69 0 -167 6q-94 6 -156 6t-153 -6q-94 -6 -163 -6q-18 0 -18 28q0 26 16 28q120 14 163.5 44t43.5 113v16l-43 992l-493 -1238q-6 -16 -29 -16q-24 0 -28 16 l-465 1189l-73 -943q-2 -17 -2 -31q0 -69 47 -98.5t168 -42.5q14 -2 14 -29q0 -29 -19 -28q-53 0 -145 6q-86 6 -133 6q-51 0 -139 -6q-85 -6 -131 -6q-14 0 -15 28z" />
<glyph unicode="N" horiz-adv-x="1761" d="M25 16q0 26 18 28q127 15 174 47.5t50 125.5l36 964v9q0 83 -48 115.5t-179 49.5q-14 0 -15 28q0 29 17 29q36 0 100 -6q57 -6 86 -6q36 0 86 6q51 6 88 6l986 -1103v872q0 87 -49.5 122t-183.5 51q-16 2 -16 27q0 29 16 29q55 0 147 -5q86 -5 133 -5q51 0 139 5 q84 5 130 5q16 0 16 -29q0 -26 -16 -27q-128 -14 -175.5 -47t-50.5 -126l-22 -1206q0 -20 -25 -20q-12 0 -32 16l-1056 1193l-14 -947q-1 -8 -1 -15q0 -78 49 -110.5t177 -47.5q16 -2 16 -28q0 -29 -16 -28q-53 0 -147 6q-87 6 -134 6q-51 0 -138 -6q-84 -6 -130 -6 q-16 0 -16 28z" />
<glyph unicode="O" horiz-adv-x="1693" d="M92 692q0 326 210 538.5t544 212.5q335 0 545 -212.5t210 -538.5q0 -325 -209 -531t-546 -206t-545.5 206.5t-208.5 530.5zM317 692q0 -300 144 -486t385 -186q240 0 384.5 186t144.5 486q0 302 -146 493.5t-383 191.5q-239 0 -384 -191.5t-145 -493.5z" />
<glyph unicode="P" horiz-adv-x="1282" d="M57 16q0 26 17 28q124 14 168.5 46t44.5 127v964q0 72 -18 101t-63 46t-132 27q-16 0 -17 28q0 29 17 29q69 0 164 -6q91 -6 153 -6t153 6q94 6 163 6q252 0 382.5 -106.5t130.5 -311.5q0 -180 -139 -302.5t-344 -122.5q-123 0 -241 11v-363q0 -72 17.5 -100.5 t62.5 -45.5t131 -27q16 -2 16 -28q0 -28 -15 -28h-1q-69 0 -163 6q-90 6 -153 6q-62 0 -153 -6q-95 -6 -164 -6q-16 0 -17 28zM496 711q0 -44 27.5 -59t119.5 -15q167 0 258 95t91 262q0 164 -80.5 256t-213.5 92q-80 0 -123.5 -12t-61 -39.5t-17.5 -109.5v-470z" />
<glyph unicode="Q" horiz-adv-x="1693" d="M92 692q0 325 210.5 538t545.5 213q333 0 543 -212.5t210 -538.5q0 -289 -168 -488t-451 -239q174 -313 514 -313q43 0 116 9q15 0 15 -30q0 -16 -8.5 -23t-86.5 -22q-96 -16 -190 -16q-210 0 -384 108.5t-245 286.5q-284 42 -452.5 240.5t-168.5 486.5zM319 692 q0 -301 144.5 -488.5t384.5 -187.5q239 0 383 187.5t144 488.5q0 302 -145 493.5t-382 191.5q-239 0 -384 -191.5t-145 -493.5z" />
<glyph unicode="R" horiz-adv-x="1499" d="M59 16q0 26 17 28q85 10 130 27t63 45.5t18 100.5v964q0 71 -17 100t-62 46.5t-132 27.5q-16 0 -17 28q0 29 17 29q69 0 163 -6q90 -6 152 -6t154 6q95 6 164 6q228 0 353 -96.5t125 -272.5q0 -111 -86.5 -205.5t-234.5 -145.5l331 -504q41 -68 105.5 -100t166.5 -44 q15 -2 15 -28q0 -28 -16 -28h-1q-38 0 -124 7q-62 5 -82 5q-30 0 -94 -6q-63 -6 -93 -6l-310 506q-66 104 -106.5 133.5t-161.5 29.5v-440q0 -71 17.5 -100t63.5 -46t131 -27q17 -2 17 -28q0 -28 -15 -28h-1q-69 0 -164 6q-91 6 -154 6q-62 0 -152 -6q-94 -6 -163 -6 q-16 0 -17 28zM496 725q59 -8 149 -8q165 0 241 77.5t76 248.5q0 299 -262 299q-86 0 -130.5 -13.5t-59 -43.5t-14.5 -104v-456z" />
<glyph unicode="S" horiz-adv-x="1038" d="M84 367q0 16 31 16q22 0 26 -16q55 -190 141.5 -268.5t241.5 -78.5q124 0 192 72t68 201q0 83 -59 154t-253 184q-222 128 -290.5 217t-68.5 198q0 167 123 282t313 115q72 0 165 -20q87 -17 150 -17q12 -180 33 -317q0 -16 -27 -17q-29 0 -31 17q-34 154 -102.5 221 t-189.5 67q-115 0 -182.5 -67.5t-67.5 -182.5q0 -73 57 -138.5t246 -176.5q224 -131 294 -219.5t70 -193.5q0 -204 -121 -324t-327 -120q-91 0 -218 33q-112 30 -184 30h-5q-6 174 -25 349z" />
<glyph unicode="T" horiz-adv-x="1456" d="M-2 1078q57 155 108 350q134 -28 604 -28h33q511 0 651 28q14 -133 61 -353q0 -19 -37 -19q-16 0 -20 14q-44 144 -126 204t-243 60h-96q-50 0 -68.5 -16t-18.5 -62v-1039q0 -71 18 -100t63.5 -46t130.5 -27q16 -2 16 -28q0 -28 -15 -28h-1q-69 0 -164 6q-90 6 -151 6 q-62 0 -153 -6q-95 -6 -164 -6q-16 0 -16 28q0 26 16 28q124 14 168.5 46t44.5 127v1039q0 45 -18.5 61.5t-69.5 16.5h-80q-144 0 -262 -73t-154 -190q-5 -15 -22 -15q-35 0 -35 22z" />
<glyph unicode="U" horiz-adv-x="1599" d="M29 1383q0 29 16 29q69 0 163 -6q90 -6 152 -6t154 6q95 6 164 6q16 0 16 -29t-16 -28q-87 -10 -132 -27t-63 -46.5t-18 -100.5v-646q0 -252 95 -370t310 -118q404 0 405 512v622q0 95 -45.5 127t-171.5 47q-16 0 -17 28q0 29 17 29q47 0 124 -6q79 -6 128 -6t123 6 q76 6 127 6q16 0 16 -29t-16 -28q-129 -16 -173.5 -47.5t-44.5 -126.5v-642q0 -273 -132 -428.5t-372 -155.5q-274 0 -428 148t-154 403v675q0 71 -17 100t-62 46.5t-132 27.5q-16 0 -16 28z" />
<glyph unicode="V" horiz-adv-x="1576" d="M0 1383q0 29 14 29q69 0 152 -6q79 -6 141 -6t155 6q96 6 165 6q16 0 16 -29t-10 -28q-90 -4 -130 -23.5t-40 -60.5q0 -26 24 -89l355 -932l367 906q18 59 19 88q0 100 -178 111q-12 0 -13 28q0 29 19 29q48 0 126 -6q86 -6 142 -6q46 0 118 6q74 6 122 6h1q11 0 11 -24 q0 -33 -23 -33q-90 -8 -136.5 -44t-101.5 -163l-514 -1177q-7 -16 -29 -16q-20 0 -27 17l-458 1176q-38 99 -63 131.5t-67 48t-137 27.5q-7 0 -13.5 8.5t-6.5 19.5z" />
<glyph unicode="W" horiz-adv-x="2301" d="M0 1383q0 29 16 29q69 0 144 -6q70 -6 131 -6q62 0 147 6q89 6 158 6q16 0 16 -29t-10 -28q-69 -5 -108 -35t-39 -78q0 -25 16 -61l424 -958l241 455l-225 470q-60 126 -99 162.5t-118 44.5q-7 0 -13.5 8.5t-6.5 19.5q0 29 14 29q69 0 126 -6q55 -6 118 -6q61 0 130 6 q71 6 139 6q16 0 17 -29q0 -29 -11 -28q-137 -9 -137 -78q0 -31 32 -95l148 -301l148 275q31 58 30 98q0 94 -137 101q-12 0 -12 28q0 10 6 19.5t12 9.5q49 0 121 -6q69 -6 113 -6q32 0 93 5q78 7 130 7q12 0 12 -24q0 -33 -22 -33q-80 -8 -128.5 -44t-121.5 -163l-197 -364 l267 -542l393 914q20 50 20 92q0 100 -137 107q-12 0 -12 28q0 29 18 29q50 0 119 -6q63 -6 107 -6q45 0 104 6q61 6 111 6h1q13 0 13 -24q0 -12 -7.5 -22.5t-17.5 -10.5q-76 -7 -124 -48.5t-99 -158.5l-522 -1177q-5 -16 -29 -16q-18 0 -28 16l-293 613l-337 -613 q-10 -16 -29 -16q-23 0 -30 16l-513 1177q-48 110 -101 153.5t-148 53.5q-8 0 -15.5 8.5t-7.5 19.5z" />
<glyph unicode="X" horiz-adv-x="1617" d="M55 1383q0 29 17 29q48 0 136 -6q95 -6 150 -6q62 0 159 6q102 6 171 6q16 0 17 -29q0 -29 -17 -28q-84 -11 -113.5 -25.5t-29.5 -40.5q0 -35 51 -108l252 -362l251 362q37 57 37 84q0 36 -40.5 56.5t-133.5 33.5q-12 0 -13 28q0 29 17 29q69 0 150 -6q78 -6 140 -6 q48 0 113 5q80 7 152 7q16 0 16 -29q0 -11 -7 -19.5t-16 -8.5q-111 -12 -169.5 -46.5t-131.5 -127.5l-326 -419l376 -545q76 -108 127 -134t165 -39q17 -2 17 -28q0 -28 -16 -28h-1q-48 0 -134 6q-92 6 -148 6q-60 0 -160 -6q-104 -6 -174 -6q-15 0 -15 28q0 26 16 28 q142 19 142 65q0 35 -51 108l-267 385l-266 -385q-33 -44 -33 -82t38 -58t130 -32q12 -2 12 -29q0 -28 -15 -28h-1q-71 0 -162 6q-80 6 -133 6q-46 0 -113 -6q-76 -6 -137 -6q-16 0 -16 28q0 26 22 28q101 10 158.5 43.5t133.5 130.5l343 441l-363 522q-72 105 -127 133.5 t-163 40.5q-16 0 -17 28z" />
<glyph unicode="Y" horiz-adv-x="1597" d="M61 1383q0 29 17 29q48 0 131 -6q90 -6 145 -6q52 0 145 6q108 6 179 6q16 0 16 -29t-16 -28q-133 -18 -133 -70q0 -41 42 -105l296 -461l308 462q33 48 33 84q0 39 -36.5 58.5t-123.5 31.5q-12 0 -12 28q0 29 16 29q60 0 147 -6q85 -6 142 -6q52 0 110 6q59 6 113 6 q16 0 16 -29q0 -11 -7 -19.5t-15 -8.5q-101 -11 -153 -42t-123 -133l-383 -551v-412q0 -70 12 -98.5t54.5 -46.5t129.5 -28q16 -2 16 -28q0 -28 -15 -28h-1q-69 0 -155 6q-83 6 -145 6q-61 0 -152 -6q-95 -6 -163 -6q-16 0 -17 28q0 26 17 28q124 14 168.5 46t44.5 127v408 l-355 556q-73 102 -128 133t-148 41q-16 0 -17 28z" />
<glyph unicode="Z" horiz-adv-x="1370" d="M49 16l4 17l984 1301h-459q-311 0 -436 -279q-8 -19 -23 -20q-34 0 -34 22l4 14q88 238 114 349q87 -20 540 -20q480 0 563 19q27 0 26 -38q0 -8 -5 -15l-983 -1300h543q147 0 252 73.5t147 206.5q5 16 24 16q34 1 33 -26q-57 -229 -70 -356q-102 20 -595 20 q-509 0 -602 -19q-27 0 -27 35z" />
<glyph unicode="[" horiz-adv-x="686" d="M31 592q0 22 18 23q131 14 131 55q0 78 -4 423q-4 298 -4 356q0 23 21 22q17 0 62 -12q97 -27 181 -26q117 0 191 37q10 0 18.5 -12.5t8.5 -24.5q0 -14 -43.5 -50t-95.5 -52.5t-120 -16.5q-27 0 -45 6q-8 -454 -8 -728q0 -279 8 -729q18 6 45 6q67 0 119 -17t96 -53.5 t44 -50.5q0 -11 -8.5 -23.5t-22.5 -11.5q-70 37 -187 37q-84 0 -181 -28q-45 -13 -62 -13q-20 0 -21 23q0 58 4 357q4 346 4 425q0 19 -26.5 31t-104.5 22q-18 0 -18 25z" />
<glyph unicode="\" horiz-adv-x="655" d="M65 1454q0 17 51 17q57 0 63 -20l443 -1485q0 -17 -52 -17q-58 0 -64 20z" />
<glyph unicode="]" horiz-adv-x="686" d="M28 -252q0 14 44 50.5t96 53.5t119 17q27 0 45 -6q8 451 8 729q0 274 -8 728q-18 -6 -45 -6q-68 0 -120 16.5t-95.5 52t-43.5 50.5q0 12 8.5 24.5t17.5 12.5l5 -1q69 -37 187 -36q83 0 181 26q45 12 62 12q20 0 21 -22q0 -58 -4 -356q-4 -345 -4 -423q0 -40 131 -55 q18 -1 18 -23q0 -25 -18 -25q-78 -10 -104.5 -21.5t-26.5 -31.5q0 -79 4 -425q4 -299 4 -357q0 -23 -21 -23q-17 0 -62 13q-98 28 -181 28q-118 0 -187 -37l-5 -1q-9 0 -17.5 12.5t-8.5 23.5z" />
<glyph unicode="^" horiz-adv-x="751" d="M35 978q0 7 6 16l301 432q12 16 35 17q20 0 32 -17l302 -432q8 -8 8 -16q0 -14 -17 -25q-9 -12 -22 -12q-10 0 -21 10l-282 281l-285 -281q-10 -10 -20 -10t-23.5 12.5t-13.5 24.5z" />
<glyph unicode="_" horiz-adv-x="974" d="M-25 -57q0 57 25 57h974q24 0 24 -57q0 -55 -24 -56h-972q-27 0 -27 56z" />
<glyph unicode="`" horiz-adv-x="716" d="M178 1295q0 31 26 60.5t56 29.5q16 0 27 -10l288 -274q11 -8 11 -21q0 -12 -10.5 -24.5t-20.5 -12.5q-9 0 -18 7l-340 208q-18 12 -19 37z" />
<glyph unicode="a" horiz-adv-x="913" d="M78 156q0 210 497 340l7 159v5q0 74 -36.5 117.5t-96.5 43.5t-102.5 -29t-43.5 -73q-1 -66 -34 -102.5t-89 -36.5q-33 0 -53.5 19t-20.5 52q0 79 143.5 165.5t266.5 86.5q111 0 179.5 -65.5t68.5 -175.5v-13l-14 -463v-7q0 -107 68 -107h1q34 0 79 41l7 2q8 0 15.5 -11 t7.5 -23q0 -30 -62 -73t-135 -43q-57 0 -99.5 28.5t-58.5 76.5q-110 -113 -286 -113q-92 0 -150.5 57t-58.5 142zM274 203q0 -145 113 -146q54 0 107 27.5t71 67.5l8 274q-299 -68 -299 -223z" />
<glyph unicode="b" horiz-adv-x="1122" d="M25 1336q0 29 16 29q182 47 259 109q15 12 26 12q29 0 28 -17q-16 -223 -16 -358v-306q96 96 235 96q208 0 337 -126t129 -341q0 -188 -133 -332.5t-308 -144.5q-97 0 -188 41q-62 29 -111 29q-77 0 -101 -66q-5 -12 -26 -12q-27 0 -27 16q8 86 9 207v998q0 83 -21 109 t-92 33q-16 0 -16 24zM338 190q0 -54 82.5 -109.5t152.5 -55.5q123 0 192 109.5t69 291.5q0 188 -75 294.5t-210 106.5q-73 0 -142 -54.5t-69 -108.5v-474z" />
<glyph unicode="c" horiz-adv-x="946" d="M72 432q0 204 136.5 337.5t323.5 133.5q138 0 234 -47.5t96 -114.5q0 -84 -84 -84q-36 0 -59 15.5t-46 66.5q-28 60 -59 79.5t-82 19.5q-124 0 -188.5 -103t-64.5 -301q0 -165 81.5 -265.5t219.5 -100.5q156 0 246 97l5 2q9 0 18 -12t9 -26q0 -20 -60 -70.5t-131 -76 t-151 -25.5q-183 0 -313.5 134.5t-130.5 340.5z" />
<glyph unicode="d" horiz-adv-x="1110" d="M82 420q0 216 137.5 349.5t345.5 133.5q119 0 219 -74v341q0 83 -20.5 109t-93.5 34q-16 2 -17 25q0 27 17 27q96 23 166.5 54.5t95.5 56.5q10 10 21 10q29 0 29 -17q-16 -223 -16 -356v-902q0 -71 20.5 -95t93.5 -34q17 0 17 -27q0 -22 -17 -23q-58 -7 -135 -28.5 t-120 -43.5q-23 -11 -32 -11q-16 0 -17 16l8 111q-109 -119 -276 -119q-177 0 -301.5 136t-124.5 327zM289 418q0 -166 71.5 -275.5t188.5 -109.5q67 0 121 30t114 103v524q0 53 -62 100.5t-134 47.5q-299 0 -299 -420z" />
<glyph unicode="e" horiz-adv-x="958" d="M72 424q0 201 123 340t313 139q159 0 267 -104t108 -230q0 -29 -37 -28h-561q-6 -55 -6 -115q0 -165 78 -253.5t223 -88.5q73 0 146.5 39t118.5 99l5 2q9 0 18 -11t9 -27q0 -22 -66 -89.5t-142.5 -103.5t-160.5 -36q-184 0 -310 135t-126 332zM293 598l285 8 q65 1 91.5 12t26.5 41q0 77 -52.5 128t-135.5 51q-79 0 -137 -66t-78 -174z" />
<glyph unicode="f" horiz-adv-x="686" d="M83 16q0 26 16 28q87 11 112.5 42t25.5 131v490q0 29 -25 28h-104q-20 0 -21 27q0 27 18 31q131 30 132 57q0 248 151 437t348 189q69 0 108.5 -26t39.5 -71q0 -42 -32 -66t-87 -24q-49 0 -99 38q-42 32 -75 32q-70 0 -119 -77.5t-49 -209.5v-238h229q25 0 25 -56 q0 -55 -25 -55l-231 8v-514q0 -100 24.5 -131t112.5 -42q16 -2 16 -28q0 -28 -15 -28h-1q-42 0 -106 6q-73 6 -123 6q-51 0 -123 -6q-65 -6 -107 -6q-16 0 -16 28z" />
<glyph unicode="g" horiz-adv-x="966" d="M-23 -299q0 76 70.5 148t165.5 106q-63 29 -103 81.5t-40 104.5q0 37 75 79t156 56q-88 43 -137 115t-49 160q0 141 109 246.5t259 105.5q80 0 157.5 -27.5t127.5 -74.5l185 6q27 0 27 -55t-27 -56l-130 4q23 -58 23 -118q0 -147 -108 -245.5t-265 -98.5h-41 q-82 0 -130 -21.5t-48 -50.5q0 -36 40 -59t112 -24l237 -3q154 -3 239.5 -64.5t85.5 -171.5q0 -166 -180.5 -289.5t-427.5 -123.5q-162 0 -272.5 78.5t-110.5 191.5zM234.5 -416q84.5 -63 216.5 -63q158 0 273.5 72t115.5 176q0 71 -47 101.5t-156 32.5l-238 5 q-71 0 -125 20q-124 -68 -124 -178q0 -103 84.5 -166zM313 551q0 -130 39.5 -189t130.5 -59q170 0 170 281q0 131 -40.5 192.5t-129.5 61.5q-170 0 -170 -287z" />
<glyph unicode="h" horiz-adv-x="1134" d="M31 16q0 26 16 28q86 9 111.5 40.5t25.5 132.5v951q0 83 -20 109t-92 34q-16 2 -17 25q0 27 17 27q175 41 259 108q15 12 25 13q29 0 29 -17q-16 -168 -16 -356v-347q146 139 288 139q145 0 229 -80t84 -215v-391q0 -100 26 -131.5t113 -41.5q16 -2 16 -28q0 -28 -15 -28 h-1q-41 0 -101 6q-66 6 -115 6q-51 0 -118 -6q-60 -6 -101 -6q-16 0 -17 28q0 26 17 28q71 8 92.5 40t21.5 133v342q0 221 -200 221q-127 0 -219 -102v-461q0 -92 26.5 -128t104.5 -45q16 -2 16 -28q0 -28 -15 -28h-1q-42 0 -110 6q-76 6 -126 6q-51 0 -117 -6 q-58 -6 -100 -6q-16 0 -16 28z" />
<glyph unicode="i" horiz-adv-x="573" d="M51 16q0 26 17 28q87 11 112 42t25 131v379q0 82 -21 107.5t-92 33.5q-16 0 -16 27q0 25 16 24q108 28 176.5 59.5t85.5 51.5q10 12 23 12q29 0 29 -16q-16 -229 -17 -356v-322q0 -100 25 -131t114 -42q17 -2 17 -28q0 -28 -16 -28h-1q-42 0 -107 6q-74 6 -124 6 q-51 0 -123 -6q-65 -6 -106 -6q-16 0 -17 28zM188 1254q0 45 31 76t76 31q44 0 75 -31t31 -76q0 -43 -31 -74.5t-75 -31.5t-75.5 31.5t-31.5 74.5z" />
<glyph unicode="j" horiz-adv-x="501" d="M-1 -535q0 11 7 16q109 72 144 164.5t35 282.5v668q0 82 -21 107.5t-93 33.5q-16 0 -17 27q0 25 17 24q209 53 262 111q12 12 24 12q29 0 29 -16q-16 -172 -16 -356v-582q0 -236 -134 -383q-52 -56 -125 -101t-87 -45q-9 0 -17 11.5t-8 25.5zM167 1254q0 45 31.5 77 t74.5 32q44 0 75.5 -32t31.5 -77q0 -43 -31.5 -74.5t-75.5 -31.5q-43 0 -74.5 31.5t-31.5 74.5z" />
<glyph unicode="k" horiz-adv-x="1118" d="M31 16q0 26 16 28q86 9 111.5 40.5t25.5 132.5v951q0 83 -20 109t-92 34q-16 2 -17 25q0 27 17 27q175 41 259 108q15 12 25 13q29 0 29 -17q-16 -168 -16 -356v-634q37 0 58 20l153 144q7 7 23 22q85 77 85 113q0 27 -82 37q-16 2 -16 29q0 29 16 28q43 0 109 -6 q60 -6 100 -6q30 0 77 5q57 7 102 7q16 0 17 -28q0 -27 -17 -29q-75 -8 -130.5 -34.5t-150.5 -110.5l-176 -156l268 -295q85 -93 143.5 -128t152.5 -45q16 -2 16 -28q0 -28 -15 -28h-1q-41 0 -106 6q-71 6 -121 6t-125 -6q-71 -6 -112 -6q-16 0 -16 28q0 26 16 28 q27 3 38 10t11 28q0 31 -98 135l-164 182q-20 20 -55 21v-203q0 -90 22 -128t82 -45q16 -2 16 -28q0 -28 -15 -28h-1q-44 0 -115 6q-68 6 -106 6q-44 0 -107 -6q-59 -6 -98 -6q-16 0 -16 28z" />
<glyph unicode="l" horiz-adv-x="530" d="M29 18q0 26 16 28q87 10 113 41.5t26 131.5v951q0 83 -20.5 109t-93.5 34q-16 2 -17 25q0 25 17 25q108 28 176 59t86 53q10 11 22 11q29 0 29 -17q-16 -229 -16 -356v-894q0 -100 25.5 -131.5t113.5 -41.5q16 -2 16 -28q0 -28 -15 -28h-1q-42 0 -108 5q-74 5 -124 5 q-49 0 -121 -5q-66 -5 -108 -5q-16 0 -16 28z" />
<glyph unicode="m" horiz-adv-x="1693" d="M51 16q0 26 17 28q87 11 112 42t25 131v379q0 82 -21 107.5t-92 33.5q-16 0 -16 27q0 25 16 24q101 26 169 58.5t85 52.5q10 12 23 12q29 0 28 -16l-8 -129q147 137 275 137q195 0 264 -149q155 149 302 149h2q140 0 218.5 -80t78.5 -215v-391q0 -100 25 -131t112 -42 q16 -2 16 -28q0 -28 -15 -28h-1q-41 0 -100 6q-66 6 -117 6q-50 0 -116 -6q-59 -6 -101 -6q-16 0 -17 28q0 26 17 28q70 8 91.5 40t21.5 133v342q0 116 -44.5 168.5t-138.5 52.5q-124 0 -205 -84v-479q0 -101 22.5 -133t92.5 -40q16 -2 17 -28q0 -28 -16 -28h-1q-41 0 -95 6 q-59 6 -109 6q-51 0 -111 -6q-54 -6 -95 -6q-16 0 -17 28q0 26 17 28q71 8 92.5 40t21.5 133v342q0 115 -45 168t-139 53q-59 0 -105 -22.5t-98 -79.5v-461q0 -101 22 -133t93 -40q16 -2 16 -28q0 -28 -15 -28h-1q-42 0 -103 6q-67 6 -116 6q-51 0 -117 -6q-58 -6 -100 -6 q-16 0 -17 28z" />
<glyph unicode="n" horiz-adv-x="1122" d="M49 16q0 26 17 28q88 11 113.5 42.5t25.5 130.5v379q0 82 -21 107.5t-94 33.5q-16 0 -16 27q0 25 16 24q101 26 169 58.5t85 52.5q10 12 23 12q29 0 28 -16l-8 -129q147 137 275 137q139 0 217 -80t78 -215v-391q0 -100 25.5 -131t112.5 -42q16 -2 16 -28q0 -28 -15 -28 h-1q-41 0 -101 6q-66 6 -115 6q-51 0 -118 -6q-60 -6 -102 -6q-16 0 -16 28q0 26 16 28q71 8 93 40t22 133v342q0 115 -45 168t-139 53q-59 0 -105 -22.5t-98 -79.5v-461q0 -101 22 -133t93 -40q16 -2 16 -28q0 -28 -15 -28h-1q-42 0 -103 6q-67 6 -116 6t-115 -6 q-60 -6 -102 -6q-16 0 -17 28z" />
<glyph unicode="o" horiz-adv-x="1097" d="M72 424q0 206 134 342.5t343 136.5q210 0 343 -136t133 -343q0 -204 -132.5 -335.5t-343.5 -131.5t-344 132t-133 335zM279 426q0 -185 71.5 -294t198.5 -109t198.5 108t71.5 295t-72 299.5t-198 112.5q-125 0 -197.5 -113t-72.5 -299z" />
<glyph unicode="p" horiz-adv-x="1122" d="M8 -514q0 29 17 29q87 11 113 42.5t26 131.5v907q0 82 -21 107.5t-94 33.5q-16 0 -16 27q0 25 16 24q99 25 166.5 57t88.5 54q11 12 22 12q29 0 28 -16l-8 -129q56 58 130 97.5t126 39.5q202 0 319.5 -131.5t117.5 -347.5q0 -202 -136 -334.5t-348 -132.5q-122 0 -209 47 v-315q0 -99 25.5 -131t113.5 -43q16 0 17 -29q0 -29 -17 -29q-42 0 -108 6q-72 6 -121 7q-51 0 -124 -7q-66 -6 -107 -6q-16 0 -17 29zM346 176q0 -66 58.5 -109.5t142.5 -43.5q139 0 213 104.5t74 298.5q0 171 -74.5 266.5t-208.5 95.5q-56 0 -102 -23.5t-103 -86.5v-502z " />
<glyph unicode="q" horiz-adv-x="1099" d="M82 432q0 186 135.5 328.5t314.5 142.5q96 0 191 -35q60 -22 104 -22h4q67 0 93 51q7 14 25 14q25 0 25 -16l-2 -55q-6 -133 -6 -152v-999q0 -101 26 -132.5t113 -41.5q16 0 16 -29t-16 -29q-41 0 -108 6q-73 6 -123 7q-50 0 -121 -7q-67 -6 -108 -6q-16 0 -16 29t16 29 q87 11 113 42.5t26 131.5v336q-101 -68 -227 -68q-209 0 -342 129.5t-133 345.5zM289 442q0 -203 74.5 -311t218.5 -108q78 0 140 53.5t62 134.5v453q0 73 -70.5 122.5t-158.5 49.5q-117 0 -191.5 -115t-74.5 -279z" />
<glyph unicode="r" horiz-adv-x="761" d="M49 16q0 26 17 28q89 11 114 42t25 131v379q0 82 -21 107.5t-94 33.5q-16 0 -16 27q0 25 16 24q101 26 167.5 57.5t86.5 53.5q12 12 25 12q29 0 28 -16l-8 -129q82 76 141 106.5t117 30.5q47 0 81 -30.5t34 -71.5t-25 -70t-61 -29q-45 0 -89 30q-35 24 -61 24 q-67 0 -137 -78v-461q0 -89 31 -124.5t131 -48.5q16 -2 16 -28q0 -28 -15 -28h-1q-42 0 -119 6q-85 6 -135 6q-51 0 -124 -6q-66 -6 -107 -6q-16 0 -17 28z" />
<glyph unicode="s" horiz-adv-x="782" d="M87 212q0 15 30 15q25 0 29 -16q24 -76 93.5 -132t143.5 -56q77 0 119.5 41.5t42.5 117.5q0 48 -35.5 85t-153.5 91q-155 71 -204.5 133.5t-49.5 149.5q0 108 93.5 185t220.5 77q53 0 149 -18q53 -10 70 -11q3 -121 13 -205q0 -15 -30 -16q-26 0 -28 17 q-11 75 -56.5 121.5t-107.5 46.5q-160 0 -160 -140q0 -47 38 -87t165 -103q152 -76 200 -131t48 -125q0 -125 -98.5 -210t-237.5 -85q-49 0 -152 21q-77 15 -104 16q-8 72 -38 218z" />
<glyph unicode="t" horiz-adv-x="755" d="M63 786q0 20 19 31q142 84 248 237q11 16 28 16q29 0 29 -16l-8 -196h301q27 0 27 -55t-27 -55l-305 8v-492q0 -192 136 -192h1q85 0 155 40q8 0 14.5 -11t6.5 -23q0 -26 -76 -69.5t-172 -43.5q-117 0 -186.5 71.5t-69.5 187.5v9l4 498q0 29 -24 29h-78q-23 0 -23 26z " />
<glyph unicode="u" horiz-adv-x="1071" d="M2 811q0 33 16 33q119 0 312 46q18 0 18 -26v-563q0 -116 44 -168.5t138 -52.5q60 0 106.5 22.5t98.5 79.5v453q0 90 -24 120t-96 30q-12 0 -28 -1q-15 0 -16 27q0 33 17 33q119 0 311 46q18 0 19 -26v-653q0 -71 19.5 -95t93.5 -34q17 0 17 -27q0 -22 -17 -23 q-186 -20 -255 -72q-14 -11 -28 -11q-20 0 -21 16l8 129q-152 -137 -274 -137q-140 0 -218.5 79.5t-78.5 215.5v383q0 91 -23.5 120.5t-93.5 29.5q-13 0 -30 -1q-15 0 -15 27z" />
<glyph unicode="v" horiz-adv-x="931" d="M-51 842q0 28 15 28h1q42 0 105 -6q68 -6 116 -6q50 0 122 6q63 6 106 6q16 0 16 -28q0 -26 -16 -28q-61 -8 -85 -22t-24 -40q0 -32 31 -110l168 -435l170 434q31 77 31 111q0 27 -23.5 40.5t-81.5 21.5q-16 2 -16 28q0 28 15 28h1q43 0 96 -6q50 -6 90 -6q20 0 67 5 q63 7 102 7h1q16 0 16 -28q0 -27 -17 -29q-86 -9 -115 -41t-73 -131l-294 -670q-7 -16 -24 -16q-18 0 -26 16l-276 670q-38 94 -76.5 129t-105.5 44q-16 2 -16 28z" />
<glyph unicode="w" horiz-adv-x="1431" d="M-51 842q0 28 15 28h1q42 0 104 -6q69 -6 119 -6t118 6q61 6 104 6q16 0 16 -28q0 -27 -16 -29q-51 -6 -72 -21t-21 -47t29 -105l166 -421l174 393l-14 54q-5 11 -13 31q-26 69 -44 90t-66 26q-16 2 -17 29q0 28 16 28h1q37 0 89 -6q56 -6 99 -6q50 0 118 6q62 6 104 6 q16 0 17 -28q0 -26 -17 -28q-107 -14 -107 -101q0 -43 11 -72l154 -408l164 385q29 68 28 113q0 71 -91 83q-17 2 -17 28q0 28 15 28h1q44 0 96 -6q50 -6 91 -6q22 0 64 5q58 7 97 7h1q16 0 16 -28q0 -26 -17 -28q-84 -12 -115 -44t-74 -129l-294 -670q-9 -16 -27 -16 q-16 0 -22 16l-210 537l-240 -537q-10 -16 -26 -16q-18 0 -26 16l-275 670q-36 88 -78 126.5t-113 45.5q-16 2 -16 29z" />
<glyph unicode="x" horiz-adv-x="987" d="M-5 842q0 28 15 28h1q42 0 106 -6q71 -6 120 -6q50 0 123 6q66 6 108 6q16 0 16 -28q0 -26 -16 -28q-72 -9 -72 -50q0 -33 66 -123l80 -111l82 111q74 99 73 125q0 37 -80 47q-16 2 -16 29q0 28 15 28h1q36 0 94 -6t97 -6q44 0 101 7q44 5 70 5q16 0 16 -28 q0 -26 -18 -28q-89 -12 -132 -43t-125 -130l-139 -168l184 -256q74 -103 116 -133.5t120 -39.5q17 -2 17 -28q0 -28 -16 -28h-1q-41 0 -103 6q-69 6 -119 6q-51 0 -129 -6q-72 -6 -112 -6q-16 0 -17 28q0 26 17 28q79 10 79 49q0 34 -64 125l-87 122l-90 -123 q-76 -98 -76 -125q0 -37 82 -48q14 -2 14 -28q0 -28 -15 -28h-1q-37 0 -93 6q-60 6 -100 6q-43 0 -99 -7q-44 -5 -71 -5q-16 0 -16 28q0 26 18 28q88 11 131.5 41.5t127.5 131.5l147 178l-176 246q-76 104 -118.5 134t-119.5 38q-16 2 -16 29z" />
<glyph unicode="y" horiz-adv-x="937" d="M-40 842q0 28 15 28h1q42 0 103 -6q68 -6 119 -6q50 0 125 6q67 6 108 6q16 0 16 -28q0 -27 -16 -29q-108 -13 -108 -60q0 -35 29 -112l167 -428l182 428q25 58 25 96q0 65 -98 77q-16 2 -17 28q0 28 16 28h1q43 0 95 -6q50 -6 91 -6q20 0 67 5q63 7 102 7h1q15 0 15 -28 q0 -27 -16 -29q-70 -7 -107 -40.5t-82 -131.5l-484 -1044q-81 -168 -188 -168q-52 0 -83.5 28t-31.5 72q0 46 31.5 75t83.5 29q25 0 56 -15q20 -9 30 -9q38 0 89 115l124 276l-264 641q-38 93 -76.5 128.5t-104.5 43.5q-16 2 -16 29z" />
<glyph unicode="z" horiz-adv-x="935" d="M68 10l3 9l558 774h-248q-65 0 -123.5 -48.5t-82.5 -119.5q-5 -16 -32 -17q-26 0 -25 17q68 176 85 256q51 -12 307 -13q298 0 352 13q16 0 17 -23l-2 -10l-555 -770h307q65 0 124 48t81 120q5 16 32 16q26 0 26 -16q-60 -156 -85 -258q-71 12 -356 12q-303 0 -364 -12 q-19 0 -19 22z" />
<glyph unicode="{" horiz-adv-x="522" d="M31 592q0 22 18 23q61 7 104.5 50t43.5 91v419q0 126 88.5 211t199.5 85q16 0 17 -28q0 -22 -18 -28q-63 -24 -90 -71t-27 -145v-413q0 -80 -42.5 -126t-138.5 -68q95 -23 138 -70t43 -127v-411q0 -98 27 -145.5t91 -70.5q17 -6 17 -30q0 -29 -17 -29q-111 0 -199.5 86 t-88.5 211v422q0 47 -43 89.5t-105 49.5q-18 0 -18 25z" />
<glyph unicode="|" horiz-adv-x="321" d="M102 -31v1482q0 20 58 20q59 0 59 -20v-1482q0 -20 -59 -20q-57 0 -58 20z" />
<glyph unicode="}" horiz-adv-x="522" d="M20 -262q0 24 17 30q65 24 92 70.5t27 145.5v411q0 80 42.5 127t137.5 70q-95 23 -137.5 69t-42.5 125v413q0 98 -27.5 145.5t-91.5 70.5q-16 6 -17 28q0 29 17 28q111 0 200 -85.5t89 -210.5v-419q0 -48 42.5 -90.5t104.5 -50.5q19 -1 19 -23q0 -25 -19 -25 q-61 -7 -104 -49.5t-43 -89.5v-422q0 -125 -89.5 -211t-199.5 -86q-16 0 -17 29z" />
<glyph unicode="~" horiz-adv-x="743" d="M46 288q0 14 31.5 88.5t73.5 107t103 32.5h227q69 0 101.5 18t61.5 72q6 10 24 10q33 0 32 -19q0 -16 -29 -81.5t-69.5 -95t-99.5 -29.5h-228q-65 0 -98.5 -20.5t-74.5 -94.5q-4 -8 -21 -8q-34 0 -34 20z" />
<glyph unicode="&#xa1;" horiz-adv-x="401" d="M102 43l76 894q3 27 35 27q33 0 33 -27l76 -897q0 -33 -31 -55t-78 -22q-49 0 -80 22t-31 58zM104 1299q0 45 31.5 77t77.5 32q44 0 76.5 -32t32.5 -77t-32 -77.5t-77 -32.5q-46 0 -77.5 32t-31.5 78z" />
<glyph unicode="&#xa2;" horiz-adv-x="946" d="M72 432q0 204 136.5 337.5t323.5 133.5h7l14 89q0 20 33 21q33 0 32 -21l-14 -93q113 -12 185.5 -57t72.5 -101q0 -84 -84 -84q-36 0 -59 15.5t-46 65.5q-32 71 -77 89l-104 -747q43 -12 88 -12q156 0 246 97l5 2q9 0 18 -12t9 -26l-4 -16q-135 -156 -338 -156 q-7 0 -21 1t-22 1l-10 -92q0 -20 -33 -21q-33 0 -33 21l15 104q-152 38 -246 163.5t-94 297.5zM279 434q0 -112 39 -198t112 -130l100 732q-123 0 -187 -103.5t-64 -300.5z" />
<glyph unicode="&#xa3;" horiz-adv-x="1153" d="M119 106q0 58 50 102t124 44q73 0 178 -49q33 98 33 182q0 83 -37 168l-266 -4q-25 0 -25 45t25 45l223 -6q-8 11 -26 33q-70 91 -90.5 143.5t-20.5 110.5q0 159 114.5 264t290.5 105q131 0 225 -92t94 -192q0 -61 -33.5 -102t-82.5 -41q-45 0 -76 30t-31 72q0 27 23 58 q29 39 29 77q0 53 -41 89t-101 36q-95 0 -149.5 -68.5t-54.5 -185.5q0 -66 62 -203q39 -85 56 -134l285 6q25 0 25 -45t-25 -45l-264 4q10 -55 10 -104q0 -130 -84 -281q108 -43 211 -43q75 0 143 34t107 88q4 5 13 5q11 0 23 -9t12 -19q0 -15 -52 -103t-113 -126t-147 -38 q-155 0 -271 96q-86 -96 -186 -96q-83 0 -131.5 40.5t-48.5 108.5zM219 96q0 -34 21.5 -53.5t58.5 -19.5q81 -1 131 79q-78 61 -137 62q-33 0 -53.5 -19.5t-20.5 -48.5z" />
<glyph unicode="&#xa4;" horiz-adv-x="1282" d="M143 16q0 8 4 13l111 108q-104 130 -104 307q0 178 104 310l-111 108q-4 4 -4 12q0 19 26.5 43t43.5 24q6 0 10 -4l111 -110q135 105 307 106q171 0 306 -106l111 110q4 4 10 4q17 0 43.5 -23.5t26.5 -43.5q0 -8 -4 -12l-111 -108q104 -131 104 -310q0 -177 -104 -307 l111 -108q4 -5 4 -13q0 -18 -24.5 -42.5t-45.5 -24.5l-11 3l-110 111q-131 -106 -306 -106q-176 0 -307 106l-111 -110q-2 -4 -10 -4q-20 0 -45 24.5t-25 42.5zM264 444q0 -176 107 -286.5t270 -110.5t269.5 110.5t106.5 286.5t-107 288t-269 112q-163 0 -270 -111.5 t-107 -288.5z" />
<glyph unicode="&#xa5;" horiz-adv-x="1366" d="M72 1248q0 29 14 29q41 0 112 -6q78 -6 126 -6q44 0 123 6q93 6 155 6q14 0 14 -29t-14 -28q-115 -15 -115 -70q0 -38 36 -103l212 -385l220 384q29 51 29 83q0 39 -30.5 59t-107.5 32q-10 0 -10 28q0 29 14 29q51 0 126 -6q73 -6 121 -6q45 0 96 6t96 6q15 0 15 -29 t-19 -28q-85 -9 -130.5 -39.5t-107.5 -134.5l-199 -333h212q25 0 24 -35q0 -33 -26 -33h-249l-45 -74v-90h296q25 0 24 -35q0 -33 -26 -32h-294v-197q0 -70 10 -99t46 -46.5t111 -27.5q14 -2 14 -28q0 -29 -13 -28q-60 0 -134 6q-71 6 -124 6t-131 -6q-82 -6 -142 -6 q-14 0 -14 28q0 26 14 28q108 15 145.5 46t37.5 127v197h-310q-27 0 -26 32q0 35 26 35h310v86l-41 78h-269q-27 0 -26 33q0 35 26 35h232l-182 333q-61 102 -109.5 132.5t-128.5 41.5q-14 0 -14 28z" />
<glyph unicode="&#xa6;" horiz-adv-x="321" d="M102 -31v611q0 20 58 20q57 0 57 -20v-611q0 -20 -57 -20t-58 20zM102 784v611q0 20 58 20q57 0 57 -20v-611q0 -20 -57 -20t-58 20z" />
<glyph unicode="&#xa7;" horiz-adv-x="1144" d="M72 604q0 299 258 446q27 160 163 276.5t308 116.5q75 0 125 -32t50 -79q0 -45 -22.5 -73.5t-60.5 -28.5q-25 0 -73 45q-71 66 -122 65q-100 0 -156.5 -65t-56.5 -180q0 -68 50 -147t216 -240q197 -193 259 -299t62 -204q0 -296 -261 -449q-28 -160 -163 -275.5 t-308 -115.5q-76 0 -126 31.5t-50 77.5q0 45 23 73.5t61 28.5q26 0 74 -45q69 -66 120 -66q99 0 157 65.5t58 178.5q0 69 -49.5 148.5t-214.5 240.5q-197 193 -259 299.5t-62 206.5zM219 686q0 -80 58.5 -172.5t245.5 -275.5q167 -163 223 -243.5t67 -148.5q109 96 109 273 q0 81 -58.5 174t-246.5 276q-166 163 -221.5 244t-65.5 149q-111 -102 -111 -276z" />
<glyph unicode="&#xa8;" horiz-adv-x="716" d="M72 1183q0 45 30.5 75.5t75.5 30.5q46 0 77.5 -30.5t31.5 -75.5t-32 -77t-77 -32q-44 0 -75 32.5t-31 76.5zM432 1183q0 45 31.5 75.5t77.5 30.5q44 0 75 -30.5t31 -75.5q0 -44 -31 -76.5t-75 -32.5q-46 0 -77.5 32t-31.5 77z" />
<glyph unicode="&#xa9;" horiz-adv-x="1677" d="M92 700q0 199 100 371t272.5 272t373.5 100q199 0 370.5 -100t271.5 -272t100 -371q0 -201 -100 -373t-272 -272t-370 -100q-201 0 -373.5 100t-272.5 272.5t-100 372.5zM158 700q0 -282 199 -481t481 -199q281 0 478.5 199t197.5 481q0 281 -198 479t-478 198 q-282 0 -481 -198t-199 -479zM393 694q0 184 136 308.5t345 124.5q58 0 158 -12q79 -10 116 -10q6 -68 30 -209q0 -9 -22 -9q-14 0 -14 10q-23 80 -98 130.5t-174 50.5q-141 0 -224 -105.5t-83 -278.5q0 -166 82.5 -269t218.5 -103q221 0 313 196q4 10 18 10q15 0 18 -10 q-26 -93 -47 -211q-37 0 -130 -15q-116 -19 -172 -20q-214 0 -342.5 118.5t-128.5 303.5z" />
<glyph unicode="&#xaa;" horiz-adv-x="616" d="M61 988q0 136 297 215v72q0 48 -23 75t-61 27q-86 0 -86 -55q0 -76 -71 -76q-47 0 -47 43q0 51 85 102.5t160 51.5q70 0 113 -41.5t43 -112.5v-282q0 -72 45 -72q17 0 48 26l4 2q16 0 16 -24q0 -14 -37.5 -40.5t-81.5 -26.5q-77 0 -100 63q-63 -69 -172 -69q-56 0 -94 35 t-38 87zM180 1017q0 -82 72 -82q34 0 65 16.5t41 40.5v158q-111 -31 -144.5 -59.5t-33.5 -73.5z" />
<glyph unicode="&#xab;" horiz-adv-x="731" d="M41 438q0 11 7 20l263 326l8 4q11 0 23.5 -10.5t12.5 -24.5l-1 -8l-159 -307l159 -309l1 -7q0 -12 -12 -23t-24 -11l-8 2l-264 328q-6 6 -6 20zM350 438q0 12 7 22l264 324l8 4q11 0 23.5 -10.5t12.5 -24.5l-1 -8l-158 -307l158 -309l1 -7q0 -12 -12.5 -23t-23.5 -11 l-8 2l-263 328q-8 5 -8 20z" />
<glyph unicode="&#xac;" horiz-adv-x="985" d="M41 455q0 55 27 55h802q43 0 43 -47v-406q0 -25 -57 -24q-55 0 -55 24v340h-733q-27 0 -27 58z" />
<glyph unicode="&#xad;" horiz-adv-x="667" d="M41 453q0 57 27 57h532q27 0 27 -57q0 -55 -27 -56h-532q-27 0 -27 56z" />
<glyph unicode="&#xae;" horiz-adv-x="1673" d="M92 700q0 199 100 371t272.5 272t373.5 100q199 0 370.5 -100t271.5 -272t100 -371q0 -201 -100 -373t-272 -272t-370 -100q-201 0 -373.5 100t-272.5 272.5t-100 372.5zM158 700q0 -282 199 -481t481 -199q281 0 478.5 199t197.5 481q0 281 -198 479t-478 198 q-282 0 -481 -198t-199 -479zM451 315q0 20 10 21q73 10 100 33t27 96v459q0 72 -27 95t-100 35q-10 1 -10 20q0 20 10 21q39 0 100 -4q68 -4 117 -5q37 0 96 4q61 3 103 3q136 0 212.5 -55t76.5 -151q0 -59 -47 -110.5t-129 -82.5l164 -248q39 -61 70 -80.5t90 -27.5 q8 -1 8 -21q0 -23 -10 -22q-22 0 -76 6q-42 4 -55 4q-16 0 -58 -5t-61 -5l-167 274q-41 63 -66 82t-84 19v-205q0 -73 27 -96t100 -33q10 0 11 -21q0 -23 -11 -22q-40 0 -95 4q-61 4 -109 4q-50 0 -113 -4q-55 -4 -94 -4q-10 0 -10 22zM745 721q53 -4 66 -4 q100 0 142.5 38.5t42.5 131.5q0 155 -152 154q-60 0 -79.5 -20t-19.5 -70v-230z" />
<glyph unicode="&#xaf;" horiz-adv-x="716" d="M82 1166q0 57 27 58h532q27 -1 27 -58q0 -55 -27 -55h-532q-27 0 -27 55z" />
<glyph unicode="&#xb0;" horiz-adv-x="569" d="M72 1242q0 83 61.5 142t151.5 59q89 0 151 -59t62 -142t-61.5 -143t-151.5 -60t-151.5 60t-61.5 143zM162 1242q0 -59 34.5 -98t88.5 -39q53 0 88 39t35 98q0 58 -35.5 96.5t-87.5 38.5t-87.5 -39t-35.5 -96z" />
<glyph unicode="&#xb1;" horiz-adv-x="831" d="M43 57q0 55 27 56h698q27 -1 27 -56q0 -57 -27 -57h-698q-27 0 -27 57zM43 590q0 55 27 55h290v290q0 25 56 24q57 0 57 -26v-288h295q27 0 27 -55t-27 -55h-295v-291q0 -27 -57 -27q-23 0 -39.5 7t-16.5 18v293h-290q-27 0 -27 55z" />
<glyph unicode="&#xb2;" horiz-adv-x="796" d="M16 819l2 8q248 197 363 333.5t115 238.5q0 166 -152 166q-116 0 -196 -125q-4 -6 -13 -6q-11 0 -24 10.5t-13 19.5v7q124 199 289 198q120 0 195 -66.5t75 -160.5q0 -57 -29 -116.5t-95 -131.5t-306 -279h310q43 0 84 30t65 73q8 8 16 8q11 0 25 -11.5t14 -17.5l-4 -10 q-68 -127 -88 -186q-41 8 -295 8q-274 0 -322 -8q-15 0 -16 18z" />
<glyph unicode="&#xb3;" horiz-adv-x="684" d="M43 782q0 28 17 46t46 18q30 0 75 -28.5t75 -28.5q110 0 168.5 57.5t58.5 159.5q0 83 -53.5 131.5t-142.5 48.5q-67 0 -90 -9l-7 -1q-10 0 -16 10.5t-6 20.5q0 13 8 17q246 91 246 238q0 111 -109 111q-63 0 -152 -77q-7 -6 -14 -6q-10 0 -22.5 12.5t-12.5 20.5 q0 9 49 56.5t95 68.5t96 21q90 0 153.5 -51t63.5 -125q0 -106 -178 -213q104 0 177 -65.5t73 -153.5q0 -145 -145.5 -254t-329.5 -109q-53 0 -88 25.5t-35 58.5z" />
<glyph unicode="&#xb4;" horiz-adv-x="716" d="M150 1080q0 13 9 22l290 273q10 10 26 10q30 0 56 -29.5t26 -60.5q0 -25 -18 -35l-340 -210q-9 -6 -19 -7q-10 0 -20 12.5t-10 24.5z" />
<glyph unicode="&#xb5;" horiz-adv-x="1071" d="M2 813q0 31 16 31q111 0 311 48q19 0 19 -26v-563q0 -117 44 -169t138 -52q61 0 107.5 22t97.5 78v453q0 91 -24.5 121t-99.5 30h-23q-16 0 -17 27q0 31 17 31q110 0 311 48q18 0 19 -26v-653q0 -71 19 -95t94 -35q17 -2 17 -28q0 -22 -17 -23q-186 -20 -255 -72 q-12 -9 -28 -9q-20 0 -21 16l8 129q-152 -137 -274 -137q-88 0 -142 27l-24 10q-20 0 -21 -29q0 -217 66 -341q16 -32 16 -48q0 -36 -71.5 -92.5t-110.5 -56.5q-35 0 -35 36q0 9 3 36q22 180 22 536v598q0 92 -23.5 121.5t-98.5 29.5h-24q-16 0 -16 27z" />
<glyph unicode="&#xb6;" horiz-adv-x="1394" d="M143 817q0 261 160.5 424t435.5 163h638q17 0 17 -29t-17 -28h-213v-1896q0 -16 -32 -16q-33 0 -33 16v1896h-123v-1636q0 -127 -73.5 -209t-183.5 -82q-117 0 -192.5 73t-75.5 179q0 79 54.5 135t123.5 56q61 0 99 -38.5t38 -103.5q0 -47 -27 -79.5t-71 -32.5 q-35 0 -58.5 24.5t-23.5 57.5q0 41 43 60q23 10 22 22q0 20 -28 20q-45 0 -76 -32.5t-31 -88.5q0 -82 56 -135t147 -53q84 0 138 63t54 164v520h-172q-275 0 -435.5 162.5t-160.5 423.5z" />
<glyph unicode="&#xb7;" horiz-adv-x="423" d="M92 674q0 50 35.5 85.5t85.5 35.5q49 0 84 -35.5t35 -85.5q0 -49 -35 -84t-84 -35t-85 35t-36 84z" />
<glyph unicode="&#xb8;" horiz-adv-x="716" d="M154 -387q0 23 14.5 39t38.5 16q29 0 69 -33q37 -29 60 -28q55 0 55 65q0 67 -121 129q-20 10 -20 31q0 9 6 18l113 179h82l-66 -101q-6 -9 -6 -18q0 -16 20 -30q107 -67 107 -154q0 -77 -65.5 -132t-164.5 -55q-56 0 -89 20.5t-33 53.5z" />
<glyph unicode="&#xb9;" horiz-adv-x="569" d="M76 1550q0 23 16 27q146 41 247 89q18 9 38 9q10 0 10 -14q-12 -101 -12 -211v-487q0 -58 24 -77.5t99 -27.5q16 0 16 -29t-16 -28q-28 0 -95.5 4t-101.5 4q-35 0 -99.5 -4t-92.5 -4q-16 0 -17 28q0 29 17 29q74 8 95 26.5t21 78.5v454q0 62 -22.5 84t-70.5 22h-5l-35 -1 q-16 0 -16 28z" />
<glyph unicode="&#xba;" horiz-adv-x="727" d="M72 1152q0 126 81 208.5t209 82.5q129 0 211 -82.5t82 -208.5q0 -125 -81 -205.5t-212 -80.5q-129 0 -209.5 80.5t-80.5 205.5zM199 1152q0 -110 42.5 -169t120.5 -59q80 0 123 59t43 169q0 113 -43.5 174.5t-122.5 61.5t-121 -62t-42 -174z" />
<glyph unicode="&#xbb;" horiz-adv-x="731" d="M62 122l1 7l158 309l-158 307l-1 8q0 14 12.5 24.5t23.5 10.5l8 -4l263 -325q8 -9 8 -21q0 -15 -8 -20l-263 -328l-8 -2q-11 0 -23.5 11t-12.5 23zM372 122l1 7l159 309l-159 307l-1 8q0 14 11.5 24.5t24.5 10.5l8 -4l264 -325q6 -10 6 -21q0 -14 -5 -21l-265 -327l-8 -2 q-12 0 -24 11t-12 23z" />
<glyph unicode="&#xbc;" horiz-adv-x="1576" d="M76 1302q0 23 16 27q146 41 247 89q18 9 38 9q10 0 10 -14q-12 -101 -12 -211v-487q0 -58 24 -77.5t99 -27.5q16 0 16 -29t-16 -28q-28 0 -95.5 4t-101.5 4q-35 0 -99.5 -4t-92.5 -4q-16 0 -17 28q0 29 17 29q74 8 95 26.5t21 78.5v454q0 62 -22.5 84t-70.5 22h-5l-35 -1 q-16 0 -16 28zM276 -10l3 8l958 1465q5 7 13 7q13 0 33 -13.5t20 -25.5q-1 -6 -4 -10l-955 -1464q-5 -8 -14 -8q-13 0 -33.5 14t-20.5 27zM848 246q0 9 9 19l486 581q23 29 56 28q30 0 29 -18q-11 -72 -11 -215v-332h105q24 0 24 -45q0 -47 -24 -47h-105v-219q0 -25 -76 -25 q-74 0 -73 25v219h-396q-25 0 -24 29zM979 309h289v350z" />
<glyph unicode="&#xbd;" horiz-adv-x="1611" d="M76 1302q0 23 16 27q146 41 247 89q18 9 38 9q10 0 10 -14q-12 -101 -12 -211v-487q0 -58 24 -77.5t99 -27.5q16 0 16 -29t-16 -28q-28 0 -95.5 4t-101.5 4q-35 0 -99.5 -4t-92.5 -4q-16 0 -17 28q0 29 17 29q74 8 95 26.5t21 78.5v454q0 62 -22.5 84t-70.5 22h-5l-35 -1 q-16 0 -16 28zM204 -10l3 8l958 1465q5 7 13 7q13 0 33 -13.5t20 -25.5q-1 -6 -4 -10l-955 -1464q-5 -8 -14 -8q-13 0 -33.5 14t-20.5 27zM831 10l2 8q248 197 363 333.5t115 238.5q0 166 -152 166q-116 0 -196 -125q-4 -6 -13 -6q-11 0 -24 10.5t-13 19.5v7 q124 199 289 198q120 0 195 -66.5t75 -160.5q0 -57 -29 -116.5t-95 -131.5t-306 -279h310q43 0 84 30t65 73q8 8 16 8q11 0 25 -11.5t14 -17.5l-4 -10q-68 -127 -88 -186q-41 8 -295 8q-274 0 -322 -8q-15 0 -16 18z" />
<glyph unicode="&#xbe;" horiz-adv-x="1691" d="M43 534q0 28 17 46t46 18q30 0 75 -28.5t75 -28.5q110 0 168.5 57.5t58.5 159.5q0 83 -53.5 131.5t-142.5 48.5q-67 0 -90 -9l-7 -1q-10 0 -16 10.5t-6 20.5q0 13 8 17q246 91 246 238q0 111 -109 111q-63 0 -152 -77q-7 -6 -14 -6q-10 0 -22.5 12.5t-12.5 20.5 q0 9 49 56.5t95 68.5t96 21q90 0 153.5 -51t63.5 -125q0 -106 -178 -213q104 0 177 -65.5t73 -153.5q0 -145 -145.5 -254t-329.5 -109q-53 0 -88 25.5t-35 58.5zM380 -10l3 8l958 1465q5 7 13 7q13 0 33 -13.5t20 -25.5q-1 -6 -4 -10l-955 -1464q-5 -8 -14 -8 q-13 0 -33.5 14t-20.5 27zM963 246q0 9 9 19l486 581q23 29 56 28q30 0 29 -18q-11 -72 -11 -215v-332h105q24 0 24 -45q0 -47 -24 -47h-105v-219q0 -25 -76 -25q-74 0 -73 25v219h-396q-25 0 -24 29zM1094 309h289v350z" />
<glyph unicode="&#xbf;" horiz-adv-x="681" d="M31 395q0 126 50 212.5t203 171.5q97 54 125.5 91t28.5 85v50q0 20 33 20q29 0 33 -20v-196q0 -63 -35 -112t-148 -116q-115 -69 -150.5 -118.5t-35.5 -114.5q0 -112 54 -161.5t176 -49.5q32 0 75 8q39 8 64 9q32 0 57 -26t25 -60q0 -47 -31.5 -76t-83.5 -29 q-91 0 -199 67.5t-174.5 166.5t-66.5 198zM362 1299q0 45 32 77t77 32q44 0 76.5 -32t32.5 -77t-32.5 -77.5t-76.5 -32.5q-45 0 -77 32.5t-32 77.5z" />
<glyph unicode="&#xc0;" d="M-3 13q0 29 23 31q85 8 135 47t103 159l479 1176q6 16 29 17q25 0 31 -16l423 -1177q36 -99 96.5 -146.5t163.5 -59.5q20 -2 20 -28q0 -29 -16 -28q-71 0 -160 6q-77 6 -131 6q-62 0 -155 -6q-97 -6 -166 -6q-16 0 -16 28q0 29 12 29q91 4 131 24t40 62q0 27 -20 85 l-116 343h-422l-116 -317q-23 -63 -23 -99q0 -90 166 -98q12 0 12 -29t-16 -28q-61 0 -136 6q-71 6 -126 6q-44 0 -111 -6q-70 -6 -119 -6q-15 0 -15 25zM418 1796q0 31 26.5 64.5t63.5 33.5q17 0 30 -11l298 -288q12 -9 12 -18q0 -14 -14 -28.5t-23 -14.5t-18 6l-355 215 q-20 11 -20 41zM506 625h375l-181 523z" />
<glyph unicode="&#xc1;" d="M-3 13q0 29 23 31q85 8 135 47t103 159l479 1176q6 16 29 17q25 0 31 -16l423 -1177q36 -99 96.5 -146.5t163.5 -59.5q20 -2 20 -28q0 -29 -16 -28q-71 0 -160 6q-77 6 -131 6q-62 0 -155 -6q-97 -6 -166 -6q-16 0 -16 28q0 29 12 29q91 4 131 24t40 62q0 27 -20 85 l-116 343h-422l-116 -317q-23 -63 -23 -99q0 -90 166 -98q12 0 12 -29t-16 -28q-61 0 -136 6q-71 6 -126 6q-44 0 -111 -6q-70 -6 -119 -6q-15 0 -15 25zM506 625h375l-181 523zM684 1575q0 9 11 19l306 290q10 10 27 10q35 0 60.5 -32t25.5 -62q0 -27 -18 -38l-359 -222 q-9 -6 -18 -6q-7 0 -21 14.5t-14 26.5z" />
<glyph unicode="&#xc2;" d="M-3 13q0 29 23 31q85 8 135 47t103 159l479 1176q6 16 29 17q25 0 31 -16l423 -1177q36 -99 96.5 -146.5t163.5 -59.5q20 -2 20 -28q0 -29 -16 -28q-71 0 -160 6q-77 6 -131 6q-62 0 -155 -6q-97 -6 -166 -6q-16 0 -16 28q0 29 12 29q91 4 131 24t40 62q0 27 -20 85 l-116 343h-422l-116 -317q-23 -63 -23 -99q0 -90 166 -98q12 0 12 -29t-16 -28q-61 0 -136 6q-71 6 -126 6q-44 0 -111 -6q-70 -6 -119 -6q-15 0 -15 25zM472 1577q0 10 10 20l242 250q16 16 40 17q27 0 43 -17l240 -250q10 -8 10 -20q0 -9 -11 -22t-26 -13q-12 0 -17 3 l-239 163l-237 -162q-6 -4 -19 -4q-15 0 -25.5 12.5t-10.5 22.5zM506 625h375l-181 523z" />
<glyph unicode="&#xc3;" d="M-3 13q0 29 23 31q85 8 135 47t103 159l479 1176q6 16 29 17q25 0 31 -16l423 -1177q36 -99 96.5 -146.5t163.5 -59.5q20 -2 20 -28q0 -29 -16 -28q-71 0 -160 6q-77 6 -131 6q-62 0 -155 -6q-97 -6 -166 -6q-16 0 -16 28q0 29 12 29q91 4 131 24t40 62q0 27 -20 85 l-116 343h-422l-116 -317q-23 -63 -23 -99q0 -90 166 -98q12 0 12 -29t-16 -28q-61 0 -136 6q-71 6 -126 6q-44 0 -111 -6q-70 -6 -119 -6q-15 0 -15 25zM442 1550q0 16 34 97.5t77.5 116t101.5 34.5h227q95 0 124 17t52 56q6 11 21 11q33 0 33 -19q0 -18 -31.5 -85.5 t-74.5 -98t-101 -30.5h-227q-75 0 -110.5 -21.5t-71.5 -84.5q-6 -11 -21 -11q-33 0 -33 18zM506 625h375l-181 523z" />
<glyph unicode="&#xc4;" d="M-3 13q0 29 23 31q85 8 135 47t103 159l479 1176q6 16 29 17q25 0 31 -16l423 -1177q36 -99 96.5 -146.5t163.5 -59.5q20 -2 20 -28q0 -29 -16 -28q-71 0 -160 6q-77 6 -131 6q-62 0 -155 -6q-97 -6 -166 -6q-16 0 -16 28q0 29 12 29q91 4 131 24t40 62q0 27 -20 85 l-116 343h-422l-116 -317q-23 -63 -23 -99q0 -90 166 -98q12 0 12 -29t-16 -28q-61 0 -136 6q-71 6 -126 6q-44 0 -111 -6q-70 -6 -119 -6q-15 0 -15 25zM433 1665q0 48 33 80.5t81 32.5q46 0 79.5 -32.5t33.5 -80.5q0 -46 -33 -79.5t-80 -33.5t-80.5 33t-33.5 80zM506 625 h375l-181 523zM871 1665q0 48 33.5 80.5t81.5 32.5q46 0 79 -32.5t33 -80.5q0 -46 -33 -79.5t-79 -33.5q-47 0 -81 33t-34 80z" />
<glyph unicode="&#xc5;" d="M-3 13q0 29 23 31q85 8 135 47t103 159l475 1164q-79 12 -129.5 69t-50.5 132q0 82 61.5 141.5t151.5 59.5q89 0 150.5 -59.5t61.5 -141.5q0 -74 -50.5 -131.5t-128.5 -69.5l421 -1164q36 -99 96.5 -146.5t163.5 -59.5q20 -2 20 -28q0 -29 -16 -28q-71 0 -160 6 q-77 6 -131 6q-62 0 -155 -6q-97 -6 -166 -6q-16 0 -16 28q0 29 12 29q91 4 131 24t40 62q0 27 -20 85l-116 343h-422l-116 -317q-23 -63 -23 -99q0 -90 166 -98q12 0 12 -29t-16 -28q-61 0 -136 6q-71 6 -126 6q-44 0 -111 -6q-70 -6 -119 -6q-15 0 -15 25zM506 625h375 l-181 523zM643 1615q0 -59 35 -98t88 -39t88 39t35 98q0 58 -35.5 96.5t-87.5 38.5t-87.5 -39t-35.5 -96z" />
<glyph unicode="&#xc6;" horiz-adv-x="2136" d="M0 16q0 26 23 28q90 9 148.5 47.5t141.5 158.5l628 906q43 61 43 105q0 87 -177 94q-12 0 -12 28q0 29 16 29q61 0 238 -6q165 -6 218 -6q412 0 669 12q24 -159 68 -313q0 -20 -37 -21q-16 0 -20 15q-76 242 -326 241h-205q-119 0 -119 -123v-455h258q101 0 138.5 47.5 t51.5 166.5q2 16 30 16q29 0 28 -16q0 -51 -6 -129q-6 -75 -6 -122q0 -48 6 -123q6 -80 6 -131q0 -16 -28 -16t-30 16q-14 124 -53 174.5t-137 50.5h-258v-504q0 -121 119 -120h221q124 0 244 79t175 199q4 8 20 8q14 0 25 -7.5t10 -18.5q-82 -177 -134 -338 q-387 12 -551 12q-158 0 -549 -12q-16 0 -17 28q0 26 17 28q85 10 130.5 27t63.5 46t18 100v342h-454l-205 -317q-53 -85 -53 -123q0 -31 31 -48t118 -28q12 -1 13 -27q0 -29 -17 -28q-61 0 -144 6q-79 6 -134 6q-46 0 -113 -6q-71 -6 -119 -6q-12 0 -12 28zM678 625h411 v621z" />
<glyph unicode="&#xc7;" d="M92 692q0 207 104 381.5t286.5 272t410.5 97.5q96 0 258 -21q126 -16 183 -16q13 -143 47 -348q0 -16 -32 -17q-20 0 -25 17q-37 139 -159 229t-280 90q-241 0 -404.5 -198.5t-163.5 -486.5q0 -280 162 -476t395 -196q366 0 519 347q7 16 27 16q29 0 29 -16 q-37 -164 -72 -349q-58 0 -213 -27q-185 -34 -275 -36l-17 -27q-6 -9 -6 -18q0 -16 21 -30q105 -68 105 -154q0 -77 -65 -132t-163 -55q-56 0 -89.5 20.5t-33.5 53.5q0 23 15 39t38 16q29 0 70 -33q36 -29 59 -28q55 0 56 65q0 67 -121 129q-20 10 -21 31q0 9 6 18l68 107 q-328 18 -523.5 223.5t-195.5 511.5z" />
<glyph unicode="&#xc8;" horiz-adv-x="1333" d="M59 16q0 26 17 28q85 10 130 27t63 45.5t18 100.5v964q0 71 -17 100t-62 46.5t-132 27.5q-16 0 -17 28q0 29 17 29q258 -12 528 -12q272 0 530 12q24 -159 68 -313q0 -20 -36 -21q-17 0 -21 15q-76 242 -324 241h-207q-119 0 -118 -123v-455h258q102 0 138.5 47t50.5 167 q0 16 29 16t28 -16q0 -51 -6 -129q-6 -75 -6 -122q0 -48 6 -123q6 -80 6 -131q0 -16 -28 -16q-29 0 -29 16q-15 125 -53.5 175t-135.5 50h-258v-504q0 -121 118 -120h224q122 0 241.5 79t175.5 198q4 9 18 9t25.5 -7.5t11.5 -18.5q-83 -177 -135 -338q-386 12 -550 12 q-162 0 -549 -12q-16 0 -17 28zM428 1796q0 31 26.5 64.5t63.5 33.5q17 0 30 -11l298 -288q12 -9 12 -18q0 -14 -14 -28.5t-23 -14.5t-18 6l-355 215q-20 11 -20 41z" />
<glyph unicode="&#xc9;" horiz-adv-x="1333" d="M59 16q0 26 17 28q85 10 130 27t63 45.5t18 100.5v964q0 71 -17 100t-62 46.5t-132 27.5q-16 0 -17 28q0 29 17 29q258 -12 528 -12q272 0 530 12q24 -159 68 -313q0 -20 -36 -21q-17 0 -21 15q-76 242 -324 241h-207q-119 0 -118 -123v-455h258q102 0 138.5 47t50.5 167 q0 16 29 16t28 -16q0 -51 -6 -129q-6 -75 -6 -122q0 -48 6 -123q6 -80 6 -131q0 -16 -28 -16q-29 0 -29 16q-15 125 -53.5 175t-135.5 50h-258v-504q0 -121 118 -120h224q122 0 241.5 79t175.5 198q4 9 18 9t25.5 -7.5t11.5 -18.5q-83 -177 -135 -338q-386 12 -550 12 q-162 0 -549 -12q-16 0 -17 28zM553 1575q0 9 11 19l306 290q10 10 27 10q35 0 60.5 -32t25.5 -62q0 -27 -18 -38l-359 -222q-9 -6 -18 -6q-7 0 -21 14.5t-14 26.5z" />
<glyph unicode="&#xca;" horiz-adv-x="1333" d="M59 16q0 26 17 28q85 10 130 27t63 45.5t18 100.5v964q0 71 -17 100t-62 46.5t-132 27.5q-16 0 -17 28q0 29 17 29q258 -12 528 -12q272 0 530 12q24 -159 68 -313q0 -20 -36 -21q-17 0 -21 15q-76 242 -324 241h-207q-119 0 -118 -123v-455h258q102 0 138.5 47t50.5 167 q0 16 29 16t28 -16q0 -51 -6 -129q-6 -75 -6 -122q0 -48 6 -123q6 -80 6 -131q0 -16 -28 -16q-29 0 -29 16q-15 125 -53.5 175t-135.5 50h-258v-504q0 -121 118 -120h224q122 0 241.5 79t175.5 198q4 9 18 9t25.5 -7.5t11.5 -18.5q-83 -177 -135 -338q-386 12 -550 12 q-162 0 -549 -12q-16 0 -17 28zM384 1577q0 10 10 20l242 250q16 16 40 17q27 0 43 -17l240 -250q10 -8 10 -20q0 -9 -11 -22t-26 -13q-12 0 -17 3l-239 163l-237 -162q-6 -4 -19 -4q-15 0 -25.5 12.5t-10.5 22.5z" />
<glyph unicode="&#xcb;" horiz-adv-x="1333" d="M59 16q0 26 17 28q85 10 130 27t63 45.5t18 100.5v964q0 71 -17 100t-62 46.5t-132 27.5q-16 0 -17 28q0 29 17 29q258 -12 528 -12q272 0 530 12q24 -159 68 -313q0 -20 -36 -21q-17 0 -21 15q-76 242 -324 241h-207q-119 0 -118 -123v-455h258q102 0 138.5 47t50.5 167 q0 16 29 16t28 -16q0 -51 -6 -129q-6 -75 -6 -122q0 -48 6 -123q6 -80 6 -131q0 -16 -28 -16q-29 0 -29 16q-15 125 -53.5 175t-135.5 50h-258v-504q0 -121 118 -120h224q122 0 241.5 79t175.5 198q4 9 18 9t25.5 -7.5t11.5 -18.5q-83 -177 -135 -338q-386 12 -550 12 q-162 0 -549 -12q-16 0 -17 28zM356 1665q0 48 33 80.5t81 32.5q46 0 79.5 -32.5t33.5 -80.5q0 -46 -33 -79.5t-80 -33.5t-80.5 33t-33.5 80zM794 1665q0 48 33.5 80.5t81.5 32.5q46 0 79 -32.5t33 -80.5q0 -46 -33 -79.5t-79 -33.5q-47 0 -81 33t-34 80z" />
<glyph unicode="&#xcc;" horiz-adv-x="905" d="M119 16q0 26 16 28q124 14 168.5 46t44.5 127v964q0 72 -18 101t-63 46t-132 27q-16 0 -16 28q0 29 16 29q70 0 165 -6q90 -6 153 -6q62 0 152 6q94 6 163 6q16 0 16 -29t-16 -28q-86 -10 -131 -27t-62.5 -46t-17.5 -101v-964q0 -71 17.5 -100t62 -46t130.5 -27 q17 -2 17 -28q0 -29 -16 -28q-69 0 -163 6q-90 6 -152 6t-153 -6q-95 -6 -165 -6q-16 0 -16 28zM207 1796q0 31 26.5 64.5t63.5 33.5q17 0 30 -11l298 -288q12 -9 12 -18q0 -14 -14 -28.5t-23 -14.5t-18 6l-355 215q-20 11 -20 41z" />
<glyph unicode="&#xcd;" horiz-adv-x="905" d="M119 16q0 26 16 28q124 14 168.5 46t44.5 127v964q0 72 -18 101t-63 46t-132 27q-16 0 -16 28q0 29 16 29q70 0 165 -6q90 -6 153 -6q62 0 152 6q94 6 163 6q16 0 16 -29t-16 -28q-86 -10 -131 -27t-62.5 -46t-17.5 -101v-964q0 -71 17.5 -100t62 -46t130.5 -27 q17 -2 17 -28q0 -29 -16 -28q-69 0 -163 6q-90 6 -152 6t-153 -6q-95 -6 -165 -6q-16 0 -16 28zM275 1575q0 9 11 19l306 290q10 10 27 10q35 0 60.5 -32t25.5 -62q0 -27 -18 -38l-359 -222q-9 -6 -18 -6q-7 0 -21 14.5t-14 26.5z" />
<glyph unicode="&#xce;" horiz-adv-x="905" d="M119 16q0 26 16 28q124 14 168.5 46t44.5 127v964q0 72 -18 101t-63 46t-132 27q-16 0 -16 28q0 29 16 29q70 0 165 -6q90 -6 153 -6q62 0 152 6q94 6 163 6q16 0 16 -29t-16 -28q-86 -10 -131 -27t-62.5 -46t-17.5 -101v-964q0 -71 17.5 -100t62 -46t130.5 -27 q17 -2 17 -28q0 -29 -16 -28q-69 0 -163 6q-90 6 -152 6t-153 -6q-95 -6 -165 -6q-16 0 -16 28zM159 1577q0 10 10 20l242 250q16 16 40 17q27 0 43 -17l240 -250q10 -8 10 -20q0 -9 -11 -22t-26 -13q-12 0 -17 3l-239 163l-237 -162q-6 -4 -19 -4q-15 0 -25.5 12.5 t-10.5 22.5z" />
<glyph unicode="&#xcf;" horiz-adv-x="905" d="M113 1665q0 48 33 80.5t81 32.5q46 0 79.5 -32.5t33.5 -80.5q0 -46 -33 -79.5t-80 -33.5t-80.5 33t-33.5 80zM119 16q0 26 16 28q124 14 168.5 46t44.5 127v964q0 72 -18 101t-63 46t-132 27q-16 0 -16 28q0 29 16 29q70 0 165 -6q90 -6 153 -6q62 0 152 6q94 6 163 6 q16 0 16 -29t-16 -28q-86 -10 -131 -27t-62.5 -46t-17.5 -101v-964q0 -71 17.5 -100t62 -46t130.5 -27q17 -2 17 -28q0 -29 -16 -28q-69 0 -163 6q-90 6 -152 6t-153 -6q-95 -6 -165 -6q-16 0 -16 28zM551 1665q0 48 33.5 80.5t81.5 32.5q46 0 79 -32.5t33 -80.5 q0 -46 -33 -79.5t-79 -33.5q-47 0 -81 33t-34 80z" />
<glyph unicode="&#xd0;" horiz-adv-x="1691" d="M18 686q0 55 25 55h246v434q0 73 -18.5 102t-63.5 45.5t-131 27.5q-16 2 -17 27q0 29 17 29q180 -8 370 -8q49 0 191 4q135 4 180 4q350 0 567 -202.5t217 -517.5q0 -314 -212 -509t-572 -195q-45 0 -180 4q-141 4 -191 4q-251 0 -370 -8q-16 0 -17 28q0 29 17 29 q87 10 132 27.5t63 46t18 100.5v426l-246 -8q-25 0 -25 55zM496 174q0 -115 120 -118l196 -5q238 0 400.5 182.5t162.5 452.5q0 280 -159.5 465t-400.5 185h-6l-193 -4q-121 0 -120 -117v-474h262q27 0 26 -55q0 -55 -26 -55l-260 8z" />
<glyph unicode="&#xd1;" horiz-adv-x="1761" d="M25 16q0 26 18 28q127 15 174 47.5t50 125.5l36 964v9q0 83 -48 115.5t-179 49.5q-14 0 -15 28q0 29 17 29q36 0 100 -6q57 -6 86 -6q36 0 86 6q51 6 88 6l986 -1103v872q0 87 -49.5 122t-183.5 51q-16 2 -16 27q0 29 16 29q55 0 147 -5q86 -5 133 -5q51 0 139 5 q84 5 130 5q16 0 16 -29q0 -26 -16 -27q-128 -14 -175.5 -47t-50.5 -126l-22 -1206q0 -20 -25 -20q-12 0 -32 16l-1056 1193l-14 -947q-1 -8 -1 -15q0 -78 49 -110.5t177 -47.5q16 -2 16 -28q0 -29 -16 -28q-53 0 -147 6q-87 6 -134 6q-51 0 -138 -6q-84 -6 -130 -6 q-16 0 -16 28zM568 1550q0 16 34 97.5t77.5 116t101.5 34.5h227q95 0 124 17t52 56q6 11 21 11q33 0 33 -19q0 -18 -31.5 -85.5t-74.5 -98t-101 -30.5h-227q-75 0 -110.5 -21.5t-71.5 -84.5q-6 -11 -21 -11q-33 0 -33 18z" />
<glyph unicode="&#xd2;" horiz-adv-x="1693" d="M92 692q0 326 210 538.5t544 212.5q335 0 545 -212.5t210 -538.5q0 -325 -209 -531t-546 -206t-545.5 206.5t-208.5 530.5zM317 692q0 -300 144 -486t385 -186q240 0 384.5 186t144.5 486q0 302 -146 493.5t-383 191.5q-239 0 -384 -191.5t-145 -493.5zM543 1796 q0 31 26.5 64.5t63.5 33.5q17 0 30 -11l298 -288q12 -9 12 -18q0 -14 -14 -28.5t-23 -14.5t-18 6l-355 215q-20 11 -20 41z" />
<glyph unicode="&#xd3;" horiz-adv-x="1693" d="M92 692q0 326 210 538.5t544 212.5q335 0 545 -212.5t210 -538.5q0 -325 -209 -531t-546 -206t-545.5 206.5t-208.5 530.5zM317 692q0 -300 144 -486t385 -186q240 0 384.5 186t144.5 486q0 302 -146 493.5t-383 191.5q-239 0 -384 -191.5t-145 -493.5zM751 1575 q0 9 11 19l306 290q10 10 27 10q35 0 60.5 -32t25.5 -62q0 -27 -18 -38l-359 -222q-9 -6 -18 -6q-7 0 -21 14.5t-14 26.5z" />
<glyph unicode="&#xd4;" horiz-adv-x="1693" d="M92 692q0 326 210 538.5t544 212.5q335 0 545 -212.5t210 -538.5q0 -325 -209 -531t-546 -206t-545.5 206.5t-208.5 530.5zM317 692q0 -300 144 -486t385 -186q240 0 384.5 186t144.5 486q0 302 -146 493.5t-383 191.5q-239 0 -384 -191.5t-145 -493.5zM553 1577 q0 10 10 20l242 250q16 16 40 17q27 0 43 -17l240 -250q10 -8 10 -20q0 -9 -11 -22t-26 -13q-12 0 -17 3l-239 163l-237 -162q-6 -4 -19 -4q-15 0 -25.5 12.5t-10.5 22.5z" />
<glyph unicode="&#xd5;" horiz-adv-x="1693" d="M92 692q0 326 210 538.5t544 212.5q335 0 545 -212.5t210 -538.5q0 -325 -209 -531t-546 -206t-545.5 206.5t-208.5 530.5zM317 692q0 -300 144 -486t385 -186q240 0 384.5 186t144.5 486q0 302 -146 493.5t-383 191.5q-239 0 -384 -191.5t-145 -493.5zM511 1550 q0 16 34 97.5t77.5 116t101.5 34.5h227q95 0 124 17t52 56q6 11 21 11q33 0 33 -19q0 -18 -31.5 -85.5t-74.5 -98t-101 -30.5h-227q-75 0 -110.5 -21.5t-71.5 -84.5q-6 -11 -21 -11q-33 0 -33 18z" />
<glyph unicode="&#xd6;" horiz-adv-x="1693" d="M92 692q0 326 210 538.5t544 212.5q335 0 545 -212.5t210 -538.5q0 -325 -209 -531t-546 -206t-545.5 206.5t-208.5 530.5zM317 692q0 -300 144 -486t385 -186q240 0 384.5 186t144.5 486q0 302 -146 493.5t-383 191.5q-239 0 -384 -191.5t-145 -493.5zM514 1665 q0 48 33 80.5t81 32.5q46 0 79.5 -32.5t33.5 -80.5q0 -46 -33 -79.5t-80 -33.5t-80.5 33t-33.5 80zM952 1665q0 48 33.5 80.5t81.5 32.5q46 0 79 -32.5t33 -80.5q0 -46 -33 -79.5t-79 -33.5q-47 0 -81 33t-34 80z" />
<glyph unicode="&#xd7;" horiz-adv-x="796" d="M109 229q0 6 4 11l215 211l-215 208q-4 4 -4 13q0 18 24.5 42.5t42.5 24.5q8 0 12 -4l211 -213l209 213q4 4 13 4q18 0 42.5 -24.5t24.5 -42.5q0 -8 -4 -13l-213 -208l213 -211q4 -5 4 -11q0 -20 -24.5 -44.5t-42.5 -24.5q-8 0 -13 4l-209 215l-211 -215q-4 -4 -12 -4 q-18 0 -42.5 24.5t-24.5 44.5z" />
<glyph unicode="&#xd8;" horiz-adv-x="1693" d="M92 692q0 326 209.5 538.5t544.5 212.5q237 0 415 -109l108 152q4 4 11 4q14 0 29 -12.5t15 -23.5l-2 -7l-108 -150q137 -103 212 -261.5t75 -343.5q0 -324 -208.5 -529.5t-546.5 -205.5q-239 0 -416 106l-106 -149q-4 -3 -12 -3q-15 0 -30 13t-14 29l107 147 q-136 99 -209.5 253t-73.5 339zM317 692q0 -294 140 -477l732 1019q-139 143 -343 143q-239 0 -384 -191.5t-145 -493.5zM502 164q134 -141 344 -141q240 0 384.5 185t144.5 484q0 297 -143 491z" />
<glyph unicode="&#xd9;" horiz-adv-x="1599" d="M29 1383q0 29 16 29q69 0 163 -6q90 -6 152 -6t154 6q95 6 164 6q16 0 16 -29t-16 -28q-87 -10 -132 -27t-63 -46.5t-18 -100.5v-646q0 -252 95 -370t310 -118q404 0 405 512v622q0 95 -45.5 127t-171.5 47q-16 0 -17 28q0 29 17 29q47 0 124 -6q79 -6 128 -6t123 6 q76 6 127 6q16 0 16 -29t-16 -28q-129 -16 -173.5 -47.5t-44.5 -126.5v-642q0 -273 -132 -428.5t-372 -155.5q-274 0 -428 148t-154 403v675q0 71 -17 100t-62 46.5t-132 27.5q-16 0 -16 28zM524 1796q0 31 26.5 64.5t63.5 33.5q17 0 30 -11l298 -288q12 -9 12 -18 q0 -14 -14 -28.5t-23 -14.5t-18 6l-355 215q-20 11 -20 41z" />
<glyph unicode="&#xda;" horiz-adv-x="1599" d="M29 1383q0 29 16 29q69 0 163 -6q90 -6 152 -6t154 6q95 6 164 6q16 0 16 -29t-16 -28q-87 -10 -132 -27t-63 -46.5t-18 -100.5v-646q0 -252 95 -370t310 -118q404 0 405 512v622q0 95 -45.5 127t-171.5 47q-16 0 -17 28q0 29 17 29q47 0 124 -6q79 -6 128 -6t123 6 q76 6 127 6q16 0 16 -29t-16 -28q-129 -16 -173.5 -47.5t-44.5 -126.5v-642q0 -273 -132 -428.5t-372 -155.5q-274 0 -428 148t-154 403v675q0 71 -17 100t-62 46.5t-132 27.5q-16 0 -16 28zM802 1575q0 9 11 19l306 290q10 10 27 10q35 0 60.5 -32t25.5 -62q0 -27 -18 -38 l-359 -222q-9 -6 -18 -6q-7 0 -21 14.5t-14 26.5z" />
<glyph unicode="&#xdb;" horiz-adv-x="1599" d="M29 1383q0 29 16 29q69 0 163 -6q90 -6 152 -6t154 6q95 6 164 6q16 0 16 -29t-16 -28q-87 -10 -132 -27t-63 -46.5t-18 -100.5v-646q0 -252 95 -370t310 -118q404 0 405 512v622q0 95 -45.5 127t-171.5 47q-16 0 -17 28q0 29 17 29q47 0 124 -6q79 -6 128 -6t123 6 q76 6 127 6q16 0 16 -29t-16 -28q-129 -16 -173.5 -47.5t-44.5 -126.5v-642q0 -273 -132 -428.5t-372 -155.5q-274 0 -428 148t-154 403v675q0 71 -17 100t-62 46.5t-132 27.5q-16 0 -16 28zM573 1577q0 10 10 20l242 250q16 16 40 17q27 0 43 -17l240 -250q10 -8 10 -20 q0 -9 -11 -22t-26 -13q-12 0 -17 3l-239 163l-237 -162q-6 -4 -19 -4q-15 0 -25.5 12.5t-10.5 22.5z" />
<glyph unicode="&#xdc;" horiz-adv-x="1599" d="M29 1383q0 29 16 29q69 0 163 -6q90 -6 152 -6t154 6q95 6 164 6q16 0 16 -29t-16 -28q-87 -10 -132 -27t-63 -46.5t-18 -100.5v-646q0 -252 95 -370t310 -118q404 0 405 512v622q0 95 -45.5 127t-171.5 47q-16 0 -17 28q0 29 17 29q47 0 124 -6q79 -6 128 -6t123 6 q76 6 127 6q16 0 16 -29t-16 -28q-129 -16 -173.5 -47.5t-44.5 -126.5v-642q0 -273 -132 -428.5t-372 -155.5q-274 0 -428 148t-154 403v675q0 71 -17 100t-62 46.5t-132 27.5q-16 0 -16 28zM523 1665q0 48 33 80.5t81 32.5q46 0 79.5 -32.5t33.5 -80.5q0 -46 -33 -79.5 t-80 -33.5t-80.5 33t-33.5 80zM961 1665q0 48 33.5 80.5t81.5 32.5q46 0 79 -32.5t33 -80.5q0 -46 -33 -79.5t-79 -33.5q-47 0 -81 33t-34 80z" />
<glyph unicode="&#xdd;" horiz-adv-x="1597" d="M61 1383q0 29 17 29q48 0 131 -6q90 -6 145 -6q52 0 145 6q108 6 179 6q16 0 16 -29t-16 -28q-133 -18 -133 -70q0 -41 42 -105l296 -461l308 462q33 48 33 84q0 39 -36.5 58.5t-123.5 31.5q-12 0 -12 28q0 29 16 29q60 0 147 -6q85 -6 142 -6q52 0 110 6q59 6 113 6 q16 0 16 -29q0 -11 -7 -19.5t-15 -8.5q-101 -11 -153 -42t-123 -133l-383 -551v-412q0 -70 12 -98.5t54.5 -46.5t129.5 -28q16 -2 16 -28q0 -29 -16 -28q-69 0 -155 6q-83 6 -145 6q-61 0 -152 -6q-95 -6 -163 -6q-16 0 -17 28q0 26 17 28q124 14 168.5 46t44.5 127v408 l-355 556q-73 102 -128 133t-148 41q-16 0 -17 28zM764 1575q0 9 11 19l306 290q10 10 27 10q35 0 60.5 -32t25.5 -62q0 -27 -18 -38l-359 -222q-9 -6 -18 -6q-7 0 -21 14.5t-14 26.5z" />
<glyph unicode="&#xde;" horiz-adv-x="1327" d="M121 16q0 29 16 29q118 13 165.5 43t47.5 131v963q0 100 -47.5 130t-165.5 46q-16 2 -16 26q0 29 16 29q72 0 126 -3q163 -9 190 -9q67 0 119 3q160 9 198 9q16 0 16 -29q0 -25 -16 -26q-118 -15 -165.5 -45.5t-47.5 -130.5v-64q69 8 197 8q251 0 381.5 -104t130.5 -297 q0 -174 -142.5 -291t-341.5 -117q-54 0 -122.5 5.5t-102.5 5.5v-109q0 -111 47.5 -142.5t154.5 -31.5q28 0 27 -29q0 -29 -16 -28q-72 0 -126 3q-163 9 -191 9q-66 0 -119 -3q-159 -9 -197 -9q-16 0 -16 28zM557 459q0 -49 24.5 -62.5t108.5 -13.5q163 0 256.5 93.5 t93.5 248.5q0 156 -83.5 244t-211.5 88q-80 0 -124 -14t-54 -46t-10 -102v-436z" />
<glyph unicode="&#xdf;" horiz-adv-x="1142" d="M82 16q0 26 16 28q87 11 112.5 42t25.5 131v490q0 29 -25 28h-105q-20 0 -20 27t18 31q131 30 132 57q0 268 115.5 447t299.5 179q129 0 211.5 -78t82.5 -189q0 -204 -243 -306q156 -43 255 -185.5t99 -318.5q0 -189 -92 -315.5t-221 -126.5q-78 0 -127 52t-49 136 q0 58 29 93.5t78 35.5q36 0 62 -24.5t26 -61.5q0 -45 -44 -70q-32 -18 -32 -42q0 -53 49 -53q115 0 115 376q0 198 -84.5 330.5t-222.5 132.5q-16 0 -17 29q0 29 17 29q102 0 161.5 71t59.5 190q0 221 -146 221q-77 0 -137.5 -97t-60.5 -221v-867q0 -98 21 -131.5t85 -41.5 q16 -2 17 -28q0 -29 -17 -28q-42 0 -96 6q-60 6 -111 6t-118 -6q-60 -6 -103 -6q-16 0 -16 28z" />
<glyph unicode="&#xe0;" horiz-adv-x="913" d="M78 156q0 210 497 340l7 159v5q0 74 -36.5 117.5t-96.5 43.5t-102.5 -29t-43.5 -73q-1 -66 -34 -102.5t-89 -36.5q-33 0 -53.5 19t-20.5 52q0 79 143.5 165.5t266.5 86.5q111 0 179.5 -65.5t68.5 -175.5v-13l-14 -463v-7q0 -108 69 -107q34 0 79 41l7 2q8 0 15.5 -11 t7.5 -23q0 -30 -62 -73t-135 -43q-57 0 -99.5 28.5t-58.5 76.5q-110 -113 -286 -113q-92 0 -150.5 57t-58.5 142zM203 1295q0 31 26 60.5t56 29.5q16 0 27 -10l288 -274q11 -8 11 -21q0 -12 -10.5 -24.5t-20.5 -12.5q-9 0 -18 7l-340 208q-18 12 -19 37zM274 203 q0 -145 113 -146q54 0 107 27.5t71 67.5l8 274q-299 -68 -299 -223z" />
<glyph unicode="&#xe1;" horiz-adv-x="913" d="M78 156q0 210 497 340l7 159v5q0 74 -36.5 117.5t-96.5 43.5t-102.5 -29t-43.5 -73q-1 -66 -34 -102.5t-89 -36.5q-33 0 -53.5 19t-20.5 52q0 79 143.5 165.5t266.5 86.5q111 0 179.5 -65.5t68.5 -175.5v-13l-14 -463v-7q0 -108 69 -107q34 0 79 41l7 2q8 0 15.5 -11 t7.5 -23q0 -30 -62 -73t-135 -43q-57 0 -99.5 28.5t-58.5 76.5q-110 -113 -286 -113q-92 0 -150.5 57t-58.5 142zM274 203q0 -145 113 -146q54 0 107 27.5t71 67.5l8 274q-299 -68 -299 -223zM359 1080q0 13 9 22l290 273q10 10 26 10q30 0 56 -29.5t26 -60.5q0 -25 -18 -35 l-340 -210q-9 -6 -19 -7q-10 0 -20 12.5t-10 24.5z" />
<glyph unicode="&#xe2;" horiz-adv-x="913" d="M78 156q0 210 497 340l7 159v5q0 74 -36.5 117.5t-96.5 43.5t-102.5 -29t-43.5 -73q-1 -66 -34 -102.5t-89 -36.5q-33 0 -53.5 19t-20.5 52q0 79 143.5 165.5t266.5 86.5q111 0 179.5 -65.5t68.5 -175.5v-13l-14 -463v-7q0 -108 69 -107q34 0 79 41l7 2q8 0 15.5 -11 t7.5 -23q0 -30 -62 -73t-135 -43q-57 0 -99.5 28.5t-58.5 76.5q-110 -113 -286 -113q-92 0 -150.5 57t-58.5 142zM232 1066q0 9 6 18l205 291q9 16 32 17q23 0 34 -16l204 -292q6 -9 6 -18q0 -10 -14 -22.5t-23 -12.5q-6 0 -22 8l-185 166l-184 -166q-16 -8 -22 -8 q-10 0 -23.5 12.5t-13.5 22.5zM274 203q0 -145 113 -146q54 0 107 27.5t71 67.5l8 274q-299 -68 -299 -223z" />
<glyph unicode="&#xe3;" horiz-adv-x="913" d="M78 156q0 210 497 340l7 159v5q0 74 -36.5 117.5t-96.5 43.5t-102.5 -29t-43.5 -73q-1 -66 -34 -102.5t-89 -36.5q-33 0 -53.5 19t-20.5 52q0 79 143.5 165.5t266.5 86.5q111 0 179.5 -65.5t68.5 -175.5v-13l-14 -463v-7q0 -108 69 -107q34 0 79 41l7 2q8 0 15.5 -11 t7.5 -23q0 -30 -62 -73t-135 -43q-57 0 -99.5 28.5t-58.5 76.5q-110 -113 -286 -113q-92 0 -150.5 57t-58.5 142zM158 1018q0 14 31.5 88.5t73.5 107t103 32.5h228q69 0 101.5 18.5t60.5 71.5q6 10 24 11q33 0 33 -20q0 -15 -29.5 -81t-70 -95.5t-99.5 -29.5h-227 q-65 0 -98.5 -20t-73.5 -93q-5 -9 -23 -10q-34 0 -34 20zM274 203q0 -145 113 -146q54 0 107 27.5t71 67.5l8 274q-299 -68 -299 -223z" />
<glyph unicode="&#xe4;" horiz-adv-x="913" d="M78 156q0 210 497 340l7 159v5q0 74 -36.5 117.5t-96.5 43.5t-102.5 -29t-43.5 -73q-1 -66 -34 -102.5t-89 -36.5q-33 0 -53.5 19t-20.5 52q0 79 143.5 165.5t266.5 86.5q111 0 179.5 -65.5t68.5 -175.5v-13l-14 -463v-7q0 -108 69 -107q34 0 79 41l7 2q8 0 15.5 -11 t7.5 -23q0 -30 -62 -73t-135 -43q-57 0 -99.5 28.5t-58.5 76.5q-110 -113 -286 -113q-92 0 -150.5 57t-58.5 142zM189 1183q0 45 30.5 75.5t75.5 30.5q46 0 77.5 -30.5t31.5 -75.5t-32 -77t-77 -32q-44 0 -75 32.5t-31 76.5zM274 203q0 -145 113 -146q54 0 107 27.5t71 67.5 l8 274q-299 -68 -299 -223zM549 1183q0 45 31.5 75.5t77.5 30.5q44 0 75 -30.5t31 -75.5q0 -44 -31 -76.5t-75 -32.5q-46 0 -77.5 32t-31.5 77z" />
<glyph unicode="&#xe5;" horiz-adv-x="913" d="M78 156q0 210 497 340l7 159v5q0 74 -36.5 117.5t-96.5 43.5t-102.5 -29t-43.5 -73q-1 -66 -34 -102.5t-89 -36.5q-33 0 -53.5 19t-20.5 52q0 79 143.5 165.5t266.5 86.5q111 0 179.5 -65.5t68.5 -175.5v-13l-14 -463v-7q0 -108 69 -107q34 0 79 41l7 2q8 0 15.5 -11 t7.5 -23q0 -30 -62 -73t-135 -43q-57 0 -99.5 28.5t-58.5 76.5q-110 -113 -286 -113q-92 0 -150.5 57t-58.5 142zM272 1236q0 83 61.5 142t151.5 59q89 0 151 -59t62 -142t-61 -143t-152 -60q-90 0 -151.5 60t-61.5 143zM274 203q0 -145 113 -146q54 0 107 27.5t71 67.5 l8 274q-299 -68 -299 -223zM363 1236q0 -58 34.5 -97.5t87.5 -39.5t88 39t35 98q0 58 -35 96.5t-88 38.5q-52 0 -87 -39t-35 -96z" />
<glyph unicode="&#xe6;" horiz-adv-x="1423" d="M92 156q0 100 106.5 177.5t361.5 140.5q13 3 20 5v176q0 76 -38 121t-100 45q-59 0 -100 -29t-41 -73q0 -66 -32 -102.5t-87 -36.5q-34 0 -55 19t-21 52q0 83 139.5 167.5t262.5 84.5q140 0 211 -100q117 100 273 100q94 0 173 -45.5t130.5 -123t51.5 -113.5 q0 -32 -56 -44l-527 -122v-29q0 -165 78.5 -253.5t221.5 -88.5q73 0 146 39t118 98l7 3q9 0 17.5 -11.5t8.5 -26.5q0 -22 -65 -89.5t-142.5 -103.5t-161.5 -36q-211 0 -341 170q-131 -170 -344 -170q-93 0 -154 57.5t-61 141.5zM287 203q0 -69 31 -107.5t88 -38.5 q52 0 104.5 27.5t69.5 67.5v262q-166 -38 -229.5 -86.5t-63.5 -124.5zM766 522l339 86q46 10 46 39q0 75 -41 133t-118 58q-88 0 -149 -84.5t-77 -231.5z" />
<glyph unicode="&#xe7;" horiz-adv-x="946" d="M72 432q0 204 136.5 337.5t323.5 133.5q138 0 234 -47.5t96 -114.5q0 -84 -84 -84q-36 0 -59 15.5t-46 66.5q-28 60 -59 79.5t-82 19.5q-124 0 -188.5 -103t-64.5 -301q0 -165 81.5 -265.5t219.5 -100.5q156 0 246 97l5 2q9 0 18 -12t9 -26q0 -18 -54 -65t-117.5 -73.5 t-133.5 -31.5l-21 -31q-6 -9 -6 -18q0 -16 21 -30q106 -68 106 -154q0 -77 -65.5 -132t-163.5 -55q-56 0 -89.5 20.5t-33.5 53.5q0 23 15 39t38 16q29 0 70 -33q37 -29 59 -28q55 0 56 65q0 67 -121 129q-20 10 -21 31q0 9 6 18l70 109q-172 19 -286.5 150t-114.5 323z" />
<glyph unicode="&#xe8;" horiz-adv-x="958" d="M72 424q0 201 123 340t313 139q159 0 267 -104t108 -230q0 -29 -37 -28h-561q-6 -55 -6 -115q0 -165 78 -253.5t223 -88.5q73 0 146.5 39t118.5 99l5 2q9 0 18 -11t9 -27q0 -22 -66 -89.5t-142.5 -103.5t-160.5 -36q-184 0 -310 135t-126 332zM233 1295q0 31 26 60.5 t56 29.5q16 0 27 -10l288 -274q11 -8 11 -21q0 -12 -10.5 -24.5t-20.5 -12.5q-9 0 -18 7l-340 208q-18 12 -19 37zM293 598l285 8q65 1 91.5 12t26.5 41q0 77 -52.5 128t-135.5 51q-79 0 -137 -66t-78 -174z" />
<glyph unicode="&#xe9;" horiz-adv-x="958" d="M72 424q0 201 123 340t313 139q159 0 267 -104t108 -230q0 -29 -37 -28h-561q-6 -55 -6 -115q0 -165 78 -253.5t223 -88.5q73 0 146.5 39t118.5 99l5 2q9 0 18 -11t9 -27q0 -22 -66 -89.5t-142.5 -103.5t-160.5 -36q-184 0 -310 135t-126 332zM293 598l285 8 q65 1 91.5 12t26.5 41q0 77 -52.5 128t-135.5 51q-79 0 -137 -66t-78 -174zM396 1080q0 13 9 22l290 273q10 10 26 10q30 0 56 -29.5t26 -60.5q0 -25 -18 -35l-340 -210q-9 -6 -19 -7q-10 0 -20 12.5t-10 24.5z" />
<glyph unicode="&#xea;" horiz-adv-x="958" d="M72 424q0 201 123 340t313 139q159 0 267 -104t108 -230q0 -29 -37 -28h-561q-6 -55 -6 -115q0 -165 78 -253.5t223 -88.5q73 0 146.5 39t118.5 99l5 2q9 0 18 -11t9 -27q0 -22 -66 -89.5t-142.5 -103.5t-160.5 -36q-184 0 -310 135t-126 332zM275 1066q0 9 6 18l205 291 q9 16 32 17q23 0 34 -16l204 -292q6 -9 6 -18q0 -10 -14 -22.5t-23 -12.5q-6 0 -22 8l-185 166l-184 -166q-16 -8 -22 -8q-10 0 -23.5 12.5t-13.5 22.5zM293 598l285 8q65 1 91.5 12t26.5 41q0 77 -52.5 128t-135.5 51q-79 0 -137 -66t-78 -174z" />
<glyph unicode="&#xeb;" horiz-adv-x="958" d="M72 424q0 201 123 340t313 139q159 0 267 -104t108 -230q0 -29 -37 -28h-561q-6 -55 -6 -115q0 -165 78 -253.5t223 -88.5q73 0 146.5 39t118.5 99l5 2q9 0 18 -11t9 -27q0 -22 -66 -89.5t-142.5 -103.5t-160.5 -36q-184 0 -310 135t-126 332zM219 1183q0 45 30.5 75.5 t75.5 30.5q46 0 77.5 -30.5t31.5 -75.5t-32 -77t-77 -32q-44 0 -75 32.5t-31 76.5zM293 598l285 8q65 1 91.5 12t26.5 41q0 77 -52.5 128t-135.5 51q-79 0 -137 -66t-78 -174zM579 1183q0 45 31.5 75.5t77.5 30.5q44 0 75 -30.5t31 -75.5q0 -44 -31 -76.5t-75 -32.5 q-46 0 -77.5 32t-31.5 77z" />
<glyph unicode="&#xec;" horiz-adv-x="552" d="M17 1295q0 31 26 60.5t56 29.5q16 0 27 -10l288 -274q11 -8 11 -21q0 -12 -10.5 -24.5t-20.5 -12.5q-9 0 -18 7l-340 208q-18 12 -19 37zM51 16q0 26 17 28q87 11 112 42t25 131v379q0 82 -21 107.5t-92 33.5q-16 0 -16 27q0 25 16 24q108 28 176.5 59.5t85.5 51.5 q10 12 23 12q29 0 29 -16q-16 -229 -17 -356v-322q0 -100 25 -131t114 -42q17 -2 17 -28q0 -29 -17 -28q-42 0 -107 6q-74 6 -124 6q-51 0 -123 -6q-65 -6 -106 -6q-16 0 -17 28z" />
<glyph unicode="&#xed;" horiz-adv-x="552" d="M51 16q0 26 17 28q87 11 112 42t25 131v379q0 82 -21 107.5t-92 33.5q-16 0 -16 27q0 25 16 24q108 28 176.5 59.5t85.5 51.5q10 12 23 12q29 0 29 -16q-16 -229 -17 -356v-322q0 -100 25 -131t114 -42q17 -2 17 -28q0 -29 -17 -28q-42 0 -107 6q-74 6 -124 6 q-51 0 -123 -6q-65 -6 -106 -6q-16 0 -17 28zM187 1080q0 13 9 22l290 273q10 10 26 10q30 0 56 -29.5t26 -60.5q0 -25 -18 -35l-340 -210q-9 -6 -19 -7q-10 0 -20 12.5t-10 24.5z" />
<glyph unicode="&#xee;" horiz-adv-x="552" d="M47 1066q0 9 6 18l205 291q9 16 32 17q23 0 34 -16l204 -292q6 -9 6 -18q0 -10 -14 -22.5t-23 -12.5q-6 0 -22 8l-185 166l-184 -166q-16 -8 -22 -8q-10 0 -23.5 12.5t-13.5 22.5zM51 16q0 26 17 28q87 11 112 42t25 131v379q0 82 -21 107.5t-92 33.5q-16 0 -16 27 q0 25 16 24q108 28 176.5 59.5t85.5 51.5q10 12 23 12q29 0 29 -16q-16 -229 -17 -356v-322q0 -100 25 -131t114 -42q17 -2 17 -28q0 -29 -17 -28q-42 0 -107 6q-74 6 -124 6q-51 0 -123 -6q-65 -6 -106 -6q-16 0 -17 28z" />
<glyph unicode="&#xef;" horiz-adv-x="552" d="M-7 1183q0 45 30.5 75.5t75.5 30.5q46 0 77.5 -30.5t31.5 -75.5t-32 -77t-77 -32q-44 0 -75 32.5t-31 76.5zM51 16q0 26 17 28q87 11 112 42t25 131v379q0 82 -21 107.5t-92 33.5q-16 0 -16 27q0 25 16 24q108 28 176.5 59.5t85.5 51.5q10 12 23 12q29 0 29 -16 q-16 -229 -17 -356v-322q0 -100 25 -131t114 -42q17 -2 17 -28q0 -29 -17 -28q-42 0 -107 6q-74 6 -124 6q-51 0 -123 -6q-65 -6 -106 -6q-16 0 -17 28zM353 1183q0 45 31.5 75.5t77.5 30.5q44 0 75 -30.5t31 -75.5q0 -44 -31 -76.5t-75 -32.5q-46 0 -77.5 32t-31.5 77z" />
<glyph unicode="&#xf0;" horiz-adv-x="1064" d="M72 424q0 218 135 350.5t340 132.5q99 0 174 -43q-27 118 -143 283l-256 -150q-4 -2 -13 -2q-15 0 -31 27.5t-16 38.5t10 17l246 145q-136 160 -258 215q-7 3 -7 17q0 11 7 23.5t16 12.5q12 0 79.5 -32t133 -76.5t127.5 -100.5l250 143l11 2q14 0 30.5 -23.5t16.5 -41.5 q0 -11 -11 -17l-225 -133q144 -151 224.5 -321.5t80.5 -333.5q0 -284 -132.5 -439t-360.5 -155q-178 0 -303 136.5t-125 324.5zM279 424q0 -174 66.5 -284.5t170.5 -110.5q130 0 199 110t69 307q0 214 -52 305t-163 91q-291 0 -290 -418z" />
<glyph unicode="&#xf1;" horiz-adv-x="1122" d="M49 16q0 26 17 28q88 11 113.5 42.5t25.5 130.5v379q0 82 -21 107.5t-94 33.5q-16 0 -16 27q0 25 16 24q101 26 169 58.5t85 52.5q10 12 23 12q29 0 28 -16l-8 -129q147 137 275 137q139 0 217 -80t78 -215v-391q0 -100 25.5 -131t112.5 -42q16 -2 16 -28q0 -29 -16 -28 q-41 0 -101 6q-66 6 -115 6q-51 0 -118 -6q-60 -6 -102 -6q-16 0 -16 28q0 26 16 28q71 8 93 40t22 133v342q0 115 -45 168t-139 53q-59 0 -105 -22.5t-98 -79.5v-461q0 -101 22 -133t93 -40q16 -2 16 -28q0 -29 -16 -28q-42 0 -103 6q-67 6 -116 6t-115 -6q-60 -6 -102 -6 q-16 0 -17 28zM248 1018q0 14 31.5 88.5t73.5 107t103 32.5h228q69 0 101.5 18.5t60.5 71.5q6 10 24 11q33 0 33 -20q0 -15 -29.5 -81t-70 -95.5t-99.5 -29.5h-227q-65 0 -98.5 -20t-73.5 -93q-5 -9 -23 -10q-34 0 -34 20z" />
<glyph unicode="&#xf2;" horiz-adv-x="1097" d="M72 424q0 206 134 342.5t343 136.5q210 0 343 -136t133 -343q0 -204 -132.5 -335.5t-343.5 -131.5t-344 132t-133 335zM246 1295q0 31 26 60.5t56 29.5q16 0 27 -10l288 -274q11 -8 11 -21q0 -12 -10.5 -24.5t-20.5 -12.5q-9 0 -18 7l-340 208q-18 12 -19 37zM279 426 q0 -185 71.5 -294t198.5 -109t198.5 108t71.5 295t-72 299.5t-198 112.5q-125 0 -197.5 -113t-72.5 -299z" />
<glyph unicode="&#xf3;" horiz-adv-x="1097" d="M72 424q0 206 134 342.5t343 136.5q210 0 343 -136t133 -343q0 -204 -132.5 -335.5t-343.5 -131.5t-344 132t-133 335zM279 426q0 -185 71.5 -294t198.5 -109t198.5 108t71.5 295t-72 299.5t-198 112.5q-125 0 -197.5 -113t-72.5 -299zM445 1080q0 13 9 22l290 273 q10 10 26 10q30 0 56 -29.5t26 -60.5q0 -25 -18 -35l-340 -210q-9 -6 -19 -7q-10 0 -20 12.5t-10 24.5z" />
<glyph unicode="&#xf4;" horiz-adv-x="1097" d="M72 424q0 206 134 342.5t343 136.5q210 0 343 -136t133 -343q0 -204 -132.5 -335.5t-343.5 -131.5t-344 132t-133 335zM279 426q0 -185 71.5 -294t198.5 -109t198.5 108t71.5 295t-72 299.5t-198 112.5q-125 0 -197.5 -113t-72.5 -299zM308 1066q0 9 6 18l205 291 q9 16 32 17q23 0 34 -16l204 -292q6 -9 6 -18q0 -10 -14 -22.5t-23 -12.5q-6 0 -22 8l-185 166l-184 -166q-16 -8 -22 -8q-10 0 -23.5 12.5t-13.5 22.5z" />
<glyph unicode="&#xf5;" horiz-adv-x="1097" d="M72 424q0 206 134 342.5t343 136.5q210 0 343 -136t133 -343q0 -204 -132.5 -335.5t-343.5 -131.5t-344 132t-133 335zM224 1018q0 14 31.5 88.5t73.5 107t103 32.5h228q69 0 101.5 18.5t60.5 71.5q6 10 24 11q33 0 33 -20q0 -15 -29.5 -81t-70 -95.5t-99.5 -29.5h-227 q-65 0 -98.5 -20t-73.5 -93q-5 -9 -23 -10q-34 0 -34 20zM279 426q0 -185 71.5 -294t198.5 -109t198.5 108t71.5 295t-72 299.5t-198 112.5q-125 0 -197.5 -113t-72.5 -299z" />
<glyph unicode="&#xf6;" horiz-adv-x="1097" d="M72 424q0 206 134 342.5t343 136.5q210 0 343 -136t133 -343q0 -204 -132.5 -335.5t-343.5 -131.5t-344 132t-133 335zM262 1183q0 45 30.5 75.5t75.5 30.5q46 0 77.5 -30.5t31.5 -75.5t-32 -77t-77 -32q-44 0 -75 32.5t-31 76.5zM279 426q0 -185 71.5 -294t198.5 -109 t198.5 108t71.5 295t-72 299.5t-198 112.5q-125 0 -197.5 -113t-72.5 -299zM622 1183q0 45 31.5 75.5t77.5 30.5q44 0 75 -30.5t31 -75.5q0 -44 -31 -76.5t-75 -32.5q-46 0 -77.5 32t-31.5 77z" />
<glyph unicode="&#xf7;" horiz-adv-x="804" d="M41 453q0 23 7 39t18 16h673q10 0 17.5 -16t7.5 -39q0 -57 -27 -58h-671q-25 0 -25 58zM326 197q0 31 22.5 53t52.5 22q32 0 55 -22t23 -53q0 -33 -23 -55.5t-55 -22.5q-31 0 -53 23t-22 55zM326 709q0 31 22.5 53t52.5 22q32 0 55 -22t23 -53q0 -33 -23 -55.5t-55 -22.5 q-31 0 -53 22.5t-22 55.5z" />
<glyph unicode="&#xf8;" horiz-adv-x="1097" d="M72 424q0 205 134 341t343 136q140 0 252 -65l78 105q2 5 10 5q13 0 28.5 -12.5t14.5 -28.5l-76 -106q169 -138 169 -375q0 -205 -132.5 -336t-343.5 -131q-142 0 -252 61l-76 -104l-10 -3q-15 0 -30 12t-15 24l2 6l74 102q-170 134 -170 369zM279 424q0 -146 47 -250 l409 567q-72 94 -186 95q-125 0 -197.5 -113t-72.5 -299zM362 113q72 -92 187 -93q126 0 198 109t72 295q0 152 -49 256z" />
<glyph unicode="&#xf9;" horiz-adv-x="1071" d="M2 811q0 33 16 33q119 0 312 46q18 0 18 -26v-563q0 -116 44 -168.5t138 -52.5q60 0 106.5 22.5t98.5 79.5v453q0 90 -24 120t-96 30q-12 0 -28 -1q-15 0 -16 27q0 33 17 33q119 0 311 46q18 0 19 -26v-653q0 -71 19.5 -95t93.5 -34q17 0 17 -27q0 -22 -17 -23 q-186 -20 -255 -72q-14 -11 -28 -11q-20 0 -21 16l8 129q-152 -137 -274 -137q-140 0 -218.5 79.5t-78.5 215.5v383q0 91 -23.5 120.5t-93.5 29.5q-13 0 -30 -1q-15 0 -15 27zM203 1295q0 31 26 60.5t56 29.5q16 0 27 -10l288 -274q11 -8 11 -21q0 -12 -10.5 -24.5 t-20.5 -12.5q-9 0 -18 7l-340 208q-18 12 -19 37z" />
<glyph unicode="&#xfa;" horiz-adv-x="1071" d="M2 811q0 33 16 33q119 0 312 46q18 0 18 -26v-563q0 -116 44 -168.5t138 -52.5q60 0 106.5 22.5t98.5 79.5v453q0 90 -24 120t-96 30q-12 0 -28 -1q-15 0 -16 27q0 33 17 33q119 0 311 46q18 0 19 -26v-653q0 -71 19.5 -95t93.5 -34q17 0 17 -27q0 -22 -17 -23 q-186 -20 -255 -72q-14 -11 -28 -11q-20 0 -21 16l8 129q-152 -137 -274 -137q-140 0 -218.5 79.5t-78.5 215.5v383q0 91 -23.5 120.5t-93.5 29.5q-13 0 -30 -1q-15 0 -15 27zM408 1080q0 13 9 22l290 273q10 10 26 10q30 0 56 -29.5t26 -60.5q0 -25 -18 -35l-340 -210 q-9 -6 -19 -7q-10 0 -20 12.5t-10 24.5z" />
<glyph unicode="&#xfb;" horiz-adv-x="1071" d="M2 811q0 33 16 33q119 0 312 46q18 0 18 -26v-563q0 -116 44 -168.5t138 -52.5q60 0 106.5 22.5t98.5 79.5v453q0 90 -24 120t-96 30q-12 0 -28 -1q-15 0 -16 27q0 33 17 33q119 0 311 46q18 0 19 -26v-653q0 -71 19.5 -95t93.5 -34q17 0 17 -27q0 -22 -17 -23 q-186 -20 -255 -72q-14 -11 -28 -11q-20 0 -21 16l8 129q-152 -137 -274 -137q-140 0 -218.5 79.5t-78.5 215.5v383q0 91 -23.5 120.5t-93.5 29.5q-13 0 -30 -1q-15 0 -15 27zM269 1066q0 9 6 18l205 291q9 16 32 17q23 0 34 -16l204 -292q6 -9 6 -18q0 -10 -14 -22.5 t-23 -12.5q-6 0 -22 8l-185 166l-184 -166q-16 -8 -22 -8q-10 0 -23.5 12.5t-13.5 22.5z" />
<glyph unicode="&#xfc;" horiz-adv-x="1071" d="M2 811q0 33 16 33q119 0 312 46q18 0 18 -26v-563q0 -116 44 -168.5t138 -52.5q60 0 106.5 22.5t98.5 79.5v453q0 90 -24 120t-96 30q-12 0 -28 -1q-15 0 -16 27q0 33 17 33q119 0 311 46q18 0 19 -26v-653q0 -71 19.5 -95t93.5 -34q17 0 17 -27q0 -22 -17 -23 q-186 -20 -255 -72q-14 -11 -28 -11q-20 0 -21 16l8 129q-152 -137 -274 -137q-140 0 -218.5 79.5t-78.5 215.5v383q0 91 -23.5 120.5t-93.5 29.5q-13 0 -30 -1q-15 0 -15 27zM226 1183q0 45 30.5 75.5t75.5 30.5q46 0 77.5 -30.5t31.5 -75.5t-32 -77t-77 -32 q-44 0 -75 32.5t-31 76.5zM586 1183q0 45 31.5 75.5t77.5 30.5q44 0 75 -30.5t31 -75.5q0 -44 -31 -76.5t-75 -32.5q-46 0 -77.5 32t-31.5 77z" />
<glyph unicode="&#xfd;" horiz-adv-x="937" d="M-40 842q0 29 16 28q42 0 103 -6q68 -6 119 -6q50 0 125 6q67 6 108 6q16 0 16 -28q0 -27 -16 -29q-109 -13 -108 -61q0 -34 29 -111l167 -428l182 428q25 58 25 96q0 65 -98 77q-16 2 -17 28q0 29 17 28q43 0 95 -6q50 -6 91 -6q20 0 67 5q63 7 102 7q16 1 16 -28 q0 -27 -16 -29q-70 -7 -107 -40.5t-82 -131.5l-484 -1044q-81 -168 -188 -168q-52 0 -83.5 28t-31.5 72q0 46 31.5 75t83.5 29q25 0 56 -15q20 -9 30 -9q38 0 89 115l124 276l-264 641q-38 93 -76.5 128.5t-104.5 43.5q-16 2 -16 29zM383 1080q0 13 9 22l290 273 q10 10 26 10q30 0 56 -29.5t26 -60.5q0 -25 -18 -35l-340 -210q-9 -6 -19 -7q-10 0 -20 12.5t-10 24.5z" />
<glyph unicode="&#xfe;" horiz-adv-x="1122" d="M8 -514q0 29 17 29q89 10 114 41.5t25 132.5v1482q0 85 -20.5 113.5t-89.5 28.5q-22 0 -21 24q0 27 16 27q176 45 256 105q20 15 29 16q29 0 28 -17q0 -39 -8 -169t-8 -187v-307q44 44 107.5 70t128.5 26q209 0 338 -125t129 -342q0 -188 -133 -332.5t-310 -144.5 q-160 0 -260 74v-342q0 -103 24.5 -138.5t107.5 -35.5q24 0 24 -29t-17 -29q-46 0 -85 3q-117 9 -144 10q-52 0 -93 -4q-123 -9 -138 -9q-16 0 -17 29zM346 193q0 -55 84 -111.5t154 -56.5q124 0 191 109.5t67 291.5q0 188 -74.5 294.5t-210.5 106.5q-75 0 -143 -53.5 t-68 -109.5v-471z" />
<glyph unicode="&#xff;" horiz-adv-x="937" d="M-40 842q0 29 16 28q42 0 103 -6q68 -6 119 -6q50 0 125 6q67 6 108 6q16 0 16 -28q0 -27 -16 -29q-109 -13 -108 -61q0 -34 29 -111l167 -428l182 428q25 58 25 96q0 65 -98 77q-16 2 -17 28q0 29 17 28q43 0 95 -6q50 -6 91 -6q20 0 67 5q63 7 102 7q16 1 16 -28 q0 -27 -16 -29q-70 -7 -107 -40.5t-82 -131.5l-484 -1044q-81 -168 -188 -168q-52 0 -83.5 28t-31.5 72q0 46 31.5 75t83.5 29q25 0 56 -15q20 -9 30 -9q38 0 89 115l124 276l-264 641q-38 93 -76.5 128.5t-104.5 43.5q-16 2 -16 29zM220 1183q0 45 30.5 75.5t75.5 30.5 q46 0 77.5 -30.5t31.5 -75.5t-32 -77t-77 -32q-44 0 -75 32.5t-31 76.5zM580 1183q0 45 31.5 75.5t77.5 30.5q44 0 75 -30.5t31 -75.5q0 -44 -31 -76.5t-75 -32.5q-46 0 -77.5 32t-31.5 77z" />
<glyph unicode="&#x152;" horiz-adv-x="2103" d="M92 692q0 200 92 367.5t255 260t369 92.5q18 0 38 -1q278 -11 529 -11q270 0 529 12q24 -159 67 -313q0 -20 -35 -21q-16 0 -20 15q-76 242 -326 241h-205q-121 0 -120 -123v-455h260q102 0 138.5 47.5t50.5 166.5q2 16 28 16q29 0 28 -16q0 -51 -6 -129q-6 -75 -6 -122 q0 -48 6 -123q6 -80 6 -131q0 -16 -28 -16q-26 0 -28 16q-14 124 -53 174.5t-136 50.5h-260v-504q0 -121 120 -120h222q124 0 242.5 78.5t175.5 199.5q4 8 20 8q13 0 25 -7.5t11 -19.5q-80 -172 -136 -337q-387 12 -549 12q-70 0 -283 -6q-204 -6 -267 -6q-338 0 -546 197 t-208 507zM317 692q0 -287 144 -464t385 -177q82 0 128 14t65 44t19 108v964q0 78 -19 108t-65 44t-128 14q-238 0 -383.5 -183.5t-145.5 -471.5z" />
<glyph unicode="&#x153;" horiz-adv-x="1705" d="M72 426q0 205 133.5 341t343.5 136q236 0 371 -168q126 168 334 168q160 0 268.5 -104t108.5 -230q0 -29 -39 -28h-561q-6 -55 -6 -115q0 -165 79 -253.5t222 -88.5q74 0 147.5 39t117.5 99l6 2q9 0 17.5 -11t8.5 -27l-2 -10l-2 -6q-150 -213 -365 -213q-206 0 -332 164 q-137 -164 -373 -164q-212 0 -344.5 132t-132.5 337zM279 426q0 -187 71.5 -295t198.5 -108t198.5 108t71.5 295t-72 299.5t-198 112.5t-198 -112.5t-72 -299.5zM1039 598l285 8q66 1 92.5 12t26.5 41q0 77 -52.5 128t-136.5 51q-77 0 -134 -65t-81 -175z" />
<glyph unicode="&#x178;" horiz-adv-x="1597" d="M61 1383q0 29 17 29q48 0 131 -6q90 -6 145 -6q52 0 145 6q108 6 179 6q16 0 16 -29t-16 -28q-133 -18 -133 -70q0 -41 42 -105l296 -461l308 462q33 48 33 84q0 39 -36.5 58.5t-123.5 31.5q-12 0 -12 28q0 29 16 29q60 0 147 -6q85 -6 142 -6q52 0 110 6q59 6 113 6 q16 0 16 -29q0 -11 -7 -19.5t-15 -8.5q-101 -11 -153 -42t-123 -133l-383 -551v-412q0 -70 12 -98.5t54.5 -46.5t129.5 -28q16 -2 16 -28q0 -29 -16 -28q-69 0 -155 6q-83 6 -145 6q-61 0 -152 -6q-95 -6 -163 -6q-16 0 -17 28q0 26 17 28q124 14 168.5 46t44.5 127v408 l-355 556q-73 102 -128 133t-148 41q-16 0 -17 28zM531 1665q0 48 33 80.5t81 32.5q46 0 79.5 -32.5t33.5 -80.5q0 -46 -33 -79.5t-80 -33.5t-80.5 33t-33.5 80zM969 1665q0 48 33.5 80.5t81.5 32.5q46 0 79 -32.5t33 -80.5q0 -46 -33 -79.5t-79 -33.5q-47 0 -81 33t-34 80z " />
<glyph unicode="&#x2c6;" horiz-adv-x="716" d="M115 1066q0 9 6 18l205 291q9 16 32 17q23 0 34 -16l204 -292q6 -9 6 -18q0 -10 -14 -22.5t-23 -12.5q-6 0 -22 8l-185 166l-184 -166q-16 -8 -22 -8q-10 0 -23.5 12.5t-13.5 22.5z" />
<glyph unicode="&#x2dc;" horiz-adv-x="716" d="M17 1018q0 14 31.5 88.5t73.5 107t103 32.5h228q69 0 101.5 18.5t60.5 71.5q6 10 24 11q33 0 33 -20q0 -15 -29.5 -81t-70 -95.5t-99.5 -29.5h-227q-65 0 -98.5 -20t-73.5 -93q-5 -9 -23 -10q-34 0 -34 20z" />
<glyph unicode="&#x2000;" horiz-adv-x="947" />
<glyph unicode="&#x2001;" horiz-adv-x="1894" />
<glyph unicode="&#x2002;" horiz-adv-x="947" />
<glyph unicode="&#x2003;" horiz-adv-x="1894" />
<glyph unicode="&#x2004;" horiz-adv-x="631" />
<glyph unicode="&#x2005;" horiz-adv-x="473" />
<glyph unicode="&#x2006;" horiz-adv-x="315" />
<glyph unicode="&#x2007;" horiz-adv-x="315" />
<glyph unicode="&#x2008;" horiz-adv-x="236" />
<glyph unicode="&#x2009;" horiz-adv-x="378" />
<glyph unicode="&#x200a;" horiz-adv-x="105" />
<glyph unicode="&#x2010;" horiz-adv-x="667" d="M41 453q0 57 27 57h532q27 0 27 -57q0 -55 -27 -56h-532q-27 0 -27 56z" />
<glyph unicode="&#x2011;" horiz-adv-x="667" d="M41 453q0 57 27 57h532q27 0 27 -57q0 -55 -27 -56h-532q-27 0 -27 56z" />
<glyph unicode="&#x2012;" horiz-adv-x="667" d="M41 453q0 57 27 57h532q27 0 27 -57q0 -55 -27 -56h-532q-27 0 -27 56z" />
<glyph unicode="&#x2013;" horiz-adv-x="974" d="M-25 453q0 57 25 57h974q24 0 24 -57q0 -55 -24 -56h-972q-27 0 -27 56z" />
<glyph unicode="&#x2014;" horiz-adv-x="1998" d="M-25 453q0 57 25 57h1998q24 0 24 -57q0 -55 -24 -56h-1996q-27 0 -27 56z" />
<glyph unicode="&#x2018;" horiz-adv-x="423" d="M55 1076q0 96 38 176t116 144.5t99 64.5q14 0 23.5 -13.5t9.5 -24.5l-3 -8q-168 -108 -168 -259q0 -47 16 -47l12 3q13 5 21 5q48 0 80.5 -34.5t32.5 -86.5q0 -49 -35 -83t-84 -34q-69 0 -113.5 56t-44.5 141z" />
<glyph unicode="&#x2019;" horiz-adv-x="423" d="M83 890l3 8q168 108 168 258q0 47 -16 47l-13 -3q-12 -5 -20 -5q-48 0 -80.5 35.5t-32.5 85.5q0 49 35 84t84 35q69 0 113.5 -56.5t44.5 -142.5q0 -97 -38.5 -176.5t-116.5 -143.5t-99 -64q-13 0 -22.5 14t-9.5 24z" />
<glyph unicode="&#x201a;" horiz-adv-x="423" d="M83 -334l3 8q168 106 168 258q0 47 -16 48l-13 -4q-12 -5 -20 -5q-48 0 -80.5 35.5t-32.5 85.5q0 49 35 84t84 35q69 0 113.5 -57t44.5 -142q0 -97 -38.5 -176.5t-116.5 -143.5t-99 -64q-13 0 -22.5 13.5t-9.5 24.5z" />
<glyph unicode="&#x201c;" horiz-adv-x="792" d="M55 1076q0 96 38 176t116 144.5t99 64.5q14 0 23.5 -13.5t9.5 -24.5l-3 -8q-168 -108 -168 -259q0 -47 16 -47l12 3q13 5 21 5q48 0 80.5 -34.5t32.5 -86.5q0 -49 -35 -83t-84 -34q-69 0 -113.5 56t-44.5 141zM424 1076q0 97 38.5 177.5t115.5 144t99 63.5 q14 0 23.5 -13.5t9.5 -24.5l-3 -8q-168 -108 -168 -259q0 -47 16 -47l11 3q13 5 22 5q47 0 79.5 -34.5t32.5 -86.5q0 -49 -34.5 -83t-83.5 -34q-69 0 -113.5 56t-44.5 141z" />
<glyph unicode="&#x201d;" horiz-adv-x="792" d="M83 890l3 8q168 108 168 258q0 47 -16 47l-13 -3q-12 -5 -20 -5q-48 0 -80.5 35.5t-32.5 85.5q0 49 35 84t84 35q69 0 113.5 -56.5t44.5 -142.5q0 -97 -38.5 -176.5t-116.5 -143.5t-99 -64q-13 0 -22.5 14t-9.5 24zM451 890q0 6 4 8q168 108 168 258q0 47 -17 47l-12 -3 q-12 -5 -21 -5q-48 0 -80 35.5t-32 85.5q0 49 34.5 84t84.5 35q69 0 113 -56.5t44 -142.5q0 -97 -38.5 -176.5t-116 -143.5t-99.5 -64q-13 0 -22.5 14t-9.5 24z" />
<glyph unicode="&#x201e;" horiz-adv-x="792" d="M83 -334l3 8q168 106 168 258q0 47 -16 48l-13 -4q-12 -5 -20 -5q-48 0 -80.5 35.5t-32.5 85.5q0 49 35 84t84 35q69 0 113.5 -57t44.5 -142q0 -97 -38.5 -176.5t-116.5 -143.5t-99 -64q-13 0 -22.5 13.5t-9.5 24.5zM451 -334q0 6 4 8q168 106 168 258q0 47 -17 48 l-12 -4q-12 -5 -21 -5q-48 0 -80 35.5t-32 85.5q0 49 34.5 84t84.5 35q69 0 113 -57t44 -142q0 -97 -38.5 -176.5t-116 -143.5t-99.5 -64q-13 0 -22.5 13.5t-9.5 24.5z" />
<glyph unicode="&#x2022;" horiz-adv-x="696" d="M72 717q0 113 81 193t195 80t195.5 -80t81.5 -193q0 -114 -81.5 -195.5t-195.5 -81.5t-195 81.5t-81 195.5z" />
<glyph unicode="&#x2026;" horiz-adv-x="1579" d="M164 86q0 49 36 84t85 35t83.5 -35t34.5 -84t-34.5 -85t-83.5 -36t-85 36t-36 85zM670 86q0 49 35 84t86 35q49 0 83.5 -35t34.5 -84t-35 -85t-83 -36q-49 0 -85 36t-36 85zM1175 86q0 49 35.5 84t84.5 35t84 -35t35 -84t-34.5 -85t-84.5 -36q-49 0 -84.5 36t-35.5 85z " />
<glyph unicode="&#x202f;" horiz-adv-x="378" />
<glyph unicode="&#x2039;" horiz-adv-x="419" d="M41 438q0 11 7 20l263 326l8 4q11 0 23.5 -10.5t12.5 -24.5l-1 -8l-159 -307l159 -309l1 -7q0 -12 -12 -23t-24 -11l-8 2l-264 328q-6 6 -6 20z" />
<glyph unicode="&#x203a;" horiz-adv-x="421" d="M62 122l1 7l158 309l-158 307l-1 8q0 14 12.5 24.5t23.5 10.5l8 -4l263 -325q8 -9 8 -21q0 -15 -8 -20l-263 -328l-8 -2q-11 0 -23.5 11t-12.5 23z" />
<glyph unicode="&#x205f;" horiz-adv-x="473" />
<glyph unicode="&#x2122;" horiz-adv-x="1976" d="M-2 1172q24 63 71 248q115 -20 360 -20q254 0 369 20q8 -81 43 -251q0 -13 -25 -13q-13 0 -16 9q-35 113 -79.5 149.5t-148.5 36.5q-38 0 -51.5 -13t-13.5 -47v-513q0 -73 27 -96.5t102 -32.5q8 0 8 -22q0 -20 -8 -21q-40 0 -95 4q-61 4 -112 4q-49 0 -111 -4 q-55 -4 -94 -4q-10 0 -10 21q0 23 10 22q73 10 100 33.5t27 95.5v513q0 35 -13.5 47.5t-51.5 12.5q-190 0 -248 -187q-3 -8 -14 -8q-26 0 -26 16zM830 627q0 23 11 22q74 9 102.5 32.5t33.5 96.5l51 458q1 10 1 18q0 52 -26 77.5t-87 35.5q-8 1 -8 21t11 20q22 0 66 -4 q40 -4 57 -4q20 0 63 4q46 4 69 4l227 -587l233 587q26 0 66 -4q37 -4 57 -4q26 0 63 4q38 4 64 4q10 0 10 -20q0 -19 -8 -21q-63 -10 -83.5 -30.5t-20.5 -73.5v-13l22 -472q2 -75 23.5 -97.5t91.5 -31.5q10 1 10 -22q0 -20 -8 -21q-42 0 -101 4q-56 4 -94 4t-92 -4 q-56 -4 -98 -4q-10 0 -10 21q0 23 8 22q62 8 86 26t24 65q0 7 -2 25v13l-18 450l-254 -634q-8 -12 -22 -12q-16 0 -22 12l-243 624l-39 -440q-1 -20 -1 -34q0 -46 26.5 -66t91.5 -29q10 0 10 -22q0 -20 -12 -21q-32 0 -86 4q-49 4 -78 4q-30 0 -80 -4q-49 -4 -76 -4 q-8 0 -9 21z" />
<glyph unicode="&#x25fc;" horiz-adv-x="870" d="M0 0v870h870v-870h-870z" />
<glyph unicode="&#xfb01;" horiz-adv-x="1196" d="M80 18q0 26 16 28q87 10 113.5 41.5t26.5 131.5v488q0 31 -25 30h-105q-23 0 -22 27q0 27 18 31q133 30 134 55q0 156 75 306.5t199.5 236t271.5 85.5q88 0 159.5 -43t71.5 -97q0 -80 -102 -80q-40 0 -88 37q-73 57 -166 58q-236 0 -235 -305v-212h313q197 0 261 64 q11 11 23 11q29 0 29 -16q-16 -224 -17 -356v-320q0 -100 26 -131.5t113 -41.5q17 -2 17 -28q0 -29 -17 -28q-41 0 -107 5q-73 5 -124 5q-49 0 -121 -5q-67 -5 -107 -5q-16 0 -17 28q0 26 17 28q87 10 113 41.5t26 131.5v408q0 59 -25 82.5t-90 23.5h-317v-514 q0 -100 25.5 -131.5t113.5 -41.5q16 -2 16 -28q0 -29 -16 -28q-42 0 -107 5q-74 5 -124 5q-49 0 -122 -5q-66 -5 -108 -5q-16 0 -16 28z" />
<glyph unicode="&#xfb02;" horiz-adv-x="1198" d="M80 18q0 26 16 28q87 10 113.5 41.5t26.5 131.5v488q0 31 -25 30h-105q-20 0 -20 27t16 31q133 30 134 55q0 156 75.5 306.5t200 236t272.5 85.5q88 0 159 -39q36 16 57 37q12 10 21 10q29 0 29 -17q-16 -229 -17 -356v-894q0 -100 26 -131.5t113 -41.5q17 -2 17 -28 q0 -29 -17 -28q-41 0 -107 5q-73 5 -124 5q-49 0 -121 -5q-67 -5 -107 -5q-16 0 -17 28q0 26 17 28q87 10 113 41.5t26 131.5v514h-434v-514q0 -100 25.5 -131.5t113.5 -41.5q16 -2 16 -28q0 -29 -16 -28q-42 0 -107 5q-74 5 -124 5q-49 0 -122 -5q-66 -5 -108 -5 q-16 0 -16 28zM422 836h430v334q0 182 -195 183q-236 0 -235 -305v-212z" />
<glyph unicode="&#xfb03;" horiz-adv-x="1771" d="M80 18q0 25 16 27q88 11 114 43t26 131v488q0 31 -25 30h-105q-23 0 -22 27q0 28 18 31q132 29 132 55q1 222 163.5 401t386.5 179q56 0 110.5 -21t85.5 -54l28 -28q152 152 350 152q89 0 160 -43.5t71 -96.5q0 -80 -102 -79q-37 0 -100.5 47t-153.5 47q-236 0 -236 -305 v-213h314q90 0 149 12t106 48q20 15 29 15q29 0 29 -16q0 -39 -8 -169t-8 -187v-320q0 -99 25.5 -131t113.5 -43q16 -2 16 -27q0 -29 -16 -28q-41 0 -110.5 5t-120.5 5q-49 0 -119 -5t-111 -5q-16 0 -16 28q0 25 16 27q88 11 113.5 43t25.5 131v408q0 60 -25 83t-89 23h-318 v-514q0 -99 25.5 -131t114.5 -43q16 -2 16 -27q0 -29 -16 -28q-41 0 -111 5t-121 5q-49 0 -118.5 -5t-110.5 -5q-16 0 -17 28q0 25 17 27q88 11 113.5 43t25.5 131v514h-391v-514q0 -99 24.5 -131t112.5 -43q16 -2 16 -27q0 -29 -16 -28q-41 0 -110.5 5t-120.5 5 q-49 0 -119 -5t-111 -5q-16 0 -16 28zM420 836h391v14q0 206 98 360q-88 94 -252 95q-238 0 -237 -306v-163z" />
<glyph unicode="&#xfb04;" horiz-adv-x="1773" d="M80 18q0 25 16 27q88 11 114 43t26 131v488q0 31 -25 30h-105q-20 0 -20 27q0 28 16 31q132 29 132 55q1 222 163.5 401t386.5 179q56 0 110.5 -21t85.5 -54l28 -28q152 152 352 152q88 0 160 -39q28 12 49 30q19 16 28 17q29 0 29 -17q0 -40 -8 -170t-8 -186v-895 q0 -99 25.5 -131t113.5 -43q16 -2 16 -27q0 -29 -16 -28q-41 0 -110.5 5t-120.5 5q-49 0 -119 -5t-111 -5q-16 0 -16 28q0 25 16 27q88 11 113.5 43t25.5 131v514h-434v-514q0 -99 25.5 -131t114.5 -43q16 -2 16 -27q0 -29 -16 -28q-41 0 -111 5t-121 5q-49 0 -118.5 -5 t-110.5 -5q-16 0 -17 28q0 25 17 27q88 11 113.5 43t25.5 131v514h-391v-514q0 -99 24.5 -131t112.5 -43q16 -2 16 -27q0 -29 -16 -28q-44 0 -121 5t-108 5q-50 0 -120 -5t-112 -5q-16 0 -16 28zM420 836h391v14q0 206 98 360q-88 94 -252 95q-238 0 -237 -306v-163z M997 836h430v335q0 182 -194 183q-236 0 -236 -305v-213z" />
</font>
</defs>
</svg>
